<svg width="536" height="348" viewBox="0 0 536 348" fill="none" xmlns="http://www.w3.org/2000/svg">
<path d="M0.50234 322.251L85.3794 328.575L111.931 330.521L85.3794 331.052L50.6409 331.716L0.236816 324.727L0.50234 322.251ZM52.1012 308.982L52.4995 294.121H51.0392L50.6409 308.849L52.1012 308.982ZM54.9334 308.982L55.3317 293.944H53.7386L53.3403 308.894L54.9334 308.982ZM57.9426 308.982L58.3409 293.723H56.5708L56.1725 308.894L57.9426 308.982ZM60.9076 308.982L61.3058 293.502H59.58L59.1817 308.849L60.9076 308.982ZM63.9168 308.982L64.2265 293.237H62.5449L62.1466 308.805L63.9168 308.982ZM66.8374 308.982L67.1472 293.015H65.4656L65.1558 308.849L66.8374 308.982ZM69.8909 308.982L70.2007 292.839H68.4305L68.0765 309.601L69.8909 308.982ZM73.2099 308.982L73.5639 293.237H71.5283L71.13 309.601L73.2099 308.982ZM76.4403 308.982L76.7501 292.308H74.7587L74.449 309.601L76.4403 308.982ZM79.8478 308.982L80.1576 292.042H77.9892L77.6794 308.849L79.8478 308.982ZM83.2995 308.982L83.6535 291.777H81.3967L81.0869 308.805L83.2995 308.982ZM214.377 291.91V309.247H222.121V291.91H214.377ZM203.446 291.91V309.247H211.854V291.91H203.446ZM119.808 309.601L120.074 292.308H113.126V309.601H119.808ZM130.252 309.601L130.517 292.264H122.552L122.242 309.601H130.252ZM180.789 309.292V291.91H173.266V309.247L180.789 309.292ZM190.613 309.292V291.91H183.223V309.247L190.613 309.292ZM193.047 291.91V309.247H200.924V291.91H193.047ZM559.859 279.349H551.495V305.178H559.815L559.859 279.349ZM550.3 276.828H562.382V307.788H561.142H550.3H549.017V276.828H550.3ZM537.025 279.349H525.475V305.178H537.025V279.349ZM524.236 276.828H539.547V307.788H538.219H524.191H522.952V276.828H524.236ZM512.597 279.349H501.091V305.532H512.376L512.597 279.349ZM499.852 276.828H515.119V278.11L514.854 306.682V307.921H513.615H499.852H498.392V276.784L499.852 276.828ZM369.66 290.892H358.951V306.549H369.704L369.66 290.892ZM382.936 290.892H372.227V306.549H382.98L382.936 290.892ZM396.212 290.892H385.37V306.549H396.3L396.212 290.892ZM409.488 290.892H398.469L398.734 306.549H409.753L409.488 290.892ZM445.288 290.45H437.19L437.456 306.107H445.554L445.288 290.45ZM455.467 290.45H447.811L448.076 306.107H455.688L455.467 290.45ZM465.114 290.45H457.945L458.21 306.107H465.379L465.114 290.45ZM319.389 292.175V307.832H329.7V291.335L319.389 292.175ZM343.507 306.815V291.158H332.488V306.948L343.507 306.815ZM345.985 291.114V306.771H356.605V291.069L345.985 291.114ZM423.162 305.886V290.185H412.143L412.408 305.842L423.162 305.886ZM425.419 290.185L425.64 305.842H434.889L434.623 290.185H425.419ZM476.265 305.178L476 289.521H467.725L467.99 305.223L476.265 305.178ZM211.854 275.855H203.402V289.123H211.81L211.854 275.855ZM222.077 275.855H214.332V289.123H222.077V275.855ZM224.688 324.506H232.565V275.855H224.599L224.688 324.506ZM214.421 324.506H222.165V311.503H214.421V324.506ZM203.535 324.506H211.943V311.547H203.535V324.506ZM193.135 324.506H201.012V311.636H193.047L193.135 324.506ZM183.311 324.506H190.613V311.68H183.267L183.311 324.506ZM173.31 324.506H180.789V311.768H173.31V324.506ZM152.6 324.506H170.92V311.813H163.442V309.601H170.92V291.91H163.486V324.197H161.008V291.91H153.219V309.601H161.362V311.813H152.777L152.6 324.506ZM122.065 324.506H129.986V312.255H122.021L122.065 324.506ZM112.728 324.506H119.587V312.343H112.86L112.728 324.506ZM110.781 277.845H105.559L104.541 324.285H102.682L103.789 277.801H95.5133L95.0708 324.108H110.294V311.99H104.762V309.601H110.338V291.91H105.249V289.521H110.604L110.781 277.845ZM120.295 277.845H113.303V290.096H120.295V277.845ZM130.739 277.845H122.773V290.229H130.739V277.845ZM140.519 277.845H133.261L133.04 290.362H140.386L140.519 277.845ZM150.785 277.624H143.041V290.318H150.785V277.624ZM161.185 277.624H153.308V290.494H161.185V277.624ZM170.92 277.403H163.663V290.406H170.92V277.403ZM180.7 277.403H173.398V290.671H180.7V277.403ZM190.524 277.403H183.223V290.671H190.569L190.524 277.403ZM194.95 277.403H193.047V290.671H200.968V277.403H194.95ZM329.7 277.403H319.433V290.671H329.7V277.403ZM343.241 277.403H332.178V290.671H343.197L343.241 277.403ZM356.074 277.403H345.764V290.362H356.207L356.074 277.403ZM369.35 277.403H358.553V290.185H369.306L369.35 277.403ZM382.626 277.403H371.873V290.052H382.626V277.403ZM395.902 277.403H385.149V289.919H395.991L395.902 277.403ZM409.178 277.403H398.203V289.787H409.222L409.178 277.403ZM422.719 277.403H411.7V289.61H422.719V277.403ZM434.402 277.403H425.198L425.419 289.477H434.623L434.402 277.403ZM445.023 277.403H436.925V289.344L445.288 287.487L445.023 277.403ZM455.157 277.403H447.501V289.212H455.157V277.403ZM464.848 277.403H457.679V289.168H464.848V277.403ZM475.646 277.403H467.415L467.636 289.035H475.911L475.646 277.403ZM234.954 326.054L592.695 319.862L591.456 277.182H478.168L478.832 319.287H476.265V309.336H467.99V319.332H465.512V309.336H458.343V319.42H455.821V309.292H448.165V319.287H445.687V309.292H437.588V319.376H435.066V309.292H425.861V319.508H423.383V309.292H412.364V319.907H409.886V309.292H398.867V320.083H396.61V309.292H385.68V320.349H383.157V309.336H372.404V320.216H369.881V309.292H359.128V320.083H356.65V309.336H345.985V319.951H343.507V309.336H332.488V319.862H330.009V309.601H319.699V320.835H316.955V275.722H235.087L234.954 326.054ZM80.7329 325.347H82.9455V314.201H80.7329V325.347ZM77.3254 325.347H79.4938V314.245H77.3254V325.347ZM74.0949 325.347H76.0421L76.2633 314.334H74.3162L74.0949 325.347ZM70.7759 325.347H72.8116V314.378H70.7759V325.347ZM67.7225 325.347H69.5369V314.422H67.7225V325.347ZM64.7133 322.87H66.3949V311.99H64.7133V322.87ZM61.6599 322.87H63.43L63.6955 311.99H61.9254L61.6599 322.87ZM58.6949 322.87H60.3765L60.6863 312.078H58.9604L58.6949 322.87ZM55.6857 322.87H57.4116L57.6771 312.122H55.9512L55.6857 322.87ZM52.8535 322.87H54.4466L54.7122 312.122H53.119L52.8535 322.87ZM50.1098 322.87H51.5702L51.88 312.167H50.5524L50.1098 322.87ZM50.1098 282.268L36.834 283.374L35.7719 322.118L48.7823 322.826L50.1098 282.268ZM52.765 282.047H51.3489L51.0834 292.352H52.4995L52.765 282.047ZM55.5972 281.781H54.0041L53.7386 292.219H55.3317L55.5972 281.781ZM58.6064 281.56H56.8363L56.5708 292.175H58.3409L58.6064 281.56ZM61.5714 281.295H59.8455L59.58 292.042H61.3058L61.5714 281.295ZM64.4478 281.029H62.8547L62.5449 291.954H64.2265L64.4478 281.029ZM67.4127 281.029H65.7311L65.5099 292.087H67.1472L67.4127 281.029ZM70.4662 280.764H68.8288V291.954H70.6432L70.4662 280.764ZM73.7409 280.454H71.7053L71.484 291.821H73.5196L73.7409 280.454ZM76.9714 280.189H76.6616H75.0242L74.7587 291.689H76.7501L76.9714 280.189ZM80.4231 279.88H79.0955H78.2547L77.9892 290.583H80.1576L80.4231 279.88ZM83.8748 279.614H81.7064L81.4852 291.467H83.6978L83.8748 279.614ZM87.061 279.349H85.2024L84.3173 324.816L92.5041 325.302L92.9024 279.083L87.061 279.349ZM63.3415 242.197L62.5892 242.462L62.2794 261.613H62.9874L63.3415 242.197ZM65.5099 241.489L64.7133 240.604L64.4035 260.021H65.2886L65.5099 241.489ZM67.5012 240.826L66.7489 241.091L66.4834 259.623H67.2357L67.5012 240.826ZM69.7581 240.074L68.7403 240.427L68.4305 260.419H69.4041L69.7581 240.074ZM72.1478 239.278L70.9972 239.676L70.6874 260.021L71.838 259.8L72.1478 239.278ZM74.3162 238.57L73.4311 238.879L73.0771 259.579H73.9622L74.3162 238.57ZM76.6173 237.818L75.5553 238.172L75.2455 259.136H76.2633L76.6173 237.818ZM78.83 237.11L77.9007 237.42L77.5467 258.694H78.476L78.83 237.11ZM81.5294 236.182L80.0691 236.668L79.715 258.296L81.1754 258.031L81.5294 236.182ZM83.9191 235.43L82.7685 235.783L82.4145 256.527H83.565L83.9191 235.43ZM86.3972 234.589L85.1581 234.987L84.8041 257.102H85.999L86.3972 234.589ZM63.6512 223.09L62.8989 223.444L62.6777 238.835L63.43 238.57L63.6512 223.09ZM65.8196 222.073L64.8903 222.471L64.7133 237.951L65.6426 237.641L65.8196 222.073ZM67.811 221.1L67.0587 221.453L66.7932 238.437L67.5455 238.172L67.811 221.1ZM70.0679 220.038L69.0944 220.525L68.7846 237.774L69.8024 237.42L70.0679 220.038ZM72.5018 218.932L71.3512 219.463L71.0415 237.155L72.192 236.756L72.5018 218.932ZM74.6702 217.915L73.7409 218.313L73.4754 236.005L74.3604 235.695L74.6702 217.915ZM76.9714 216.809L75.9093 217.296L75.6438 234.412L76.7058 234.059L76.9714 216.809ZM79.184 215.748L78.2104 216.19L77.9892 233.572L78.9185 233.262L79.184 215.748ZM81.8834 214.509L80.4231 215.173L80.1133 234.014L81.5737 233.572L81.8834 214.509ZM84.2731 213.359L83.1225 213.89L82.8127 233.13L83.9633 232.776L84.2731 213.359ZM86.8398 210.971L85.6007 211.546L85.2467 231.139L86.4857 230.741L86.8398 210.971ZM64.0495 200.666L63.2972 201.108L62.9874 219.463L63.7397 219.109L64.0495 200.666ZM66.2179 199.427L65.2886 199.958L64.9788 218.49L65.9081 218.092L66.2179 199.427ZM68.2093 198.277L67.457 198.72L67.1472 217.473L67.8995 217.119L68.2093 198.277ZM70.5104 196.951L69.4926 197.526L69.1386 216.721L70.1122 216.234L70.5104 196.951ZM72.9001 195.58L71.7495 196.243L71.4398 215.482L72.5903 214.952L72.9001 195.58ZM75.0685 194.341L74.1834 194.828L73.8294 214.333L74.7587 213.934L75.0685 194.341ZM77.3696 192.97L76.3518 193.589L75.9978 213.315L77.0599 212.829L77.3696 192.97ZM79.5823 191.732L78.653 192.262L78.299 212.298L79.2725 211.856L79.5823 191.732ZM82.4145 190.184L80.9541 191.024L80.6001 211.236L82.0604 210.573L82.4145 190.184ZM84.8041 188.813L83.6535 189.476L83.3438 209.954L84.4501 209.423L84.8041 188.813ZM87.3708 187.353L86.0875 188.061L85.7334 208.804L86.9725 208.229L87.3708 187.353ZM64.3593 181.78L63.607 182.267L63.3415 198.189L64.0938 197.791L64.3593 181.78ZM66.5277 180.232L65.5984 180.896L65.3328 197.039L66.2622 196.508L66.5277 180.232ZM68.5633 178.817L67.7668 179.348L67.5012 195.801L68.2535 195.358L68.5633 178.817ZM70.8202 177.225L69.8024 177.932L69.5369 194.606L70.5547 194.032L70.8202 177.225ZM73.2541 175.544L72.0593 176.34L71.7938 193.324L72.9444 192.66L73.2541 175.544ZM75.4225 174.04L74.4932 174.659L74.2277 191.953L75.1127 191.422L75.4225 174.04ZM77.7237 172.404L76.6616 173.156L76.3961 190.847L77.4581 190.272L77.7237 172.404ZM79.9363 170.856L79.007 171.519L78.6972 189.211L79.6265 188.68L79.9363 170.856ZM82.68 168.954L81.2196 169.971L80.9099 188.061L82.3702 187.22L82.68 168.954ZM85.0696 167.273L83.9191 168.069L83.6093 186.513L84.7599 185.849L85.0696 167.273ZM87.6363 165.46L86.353 166.389L86.0432 185.142L87.3265 184.39L87.6363 165.46ZM64.7133 161.037L63.961 161.612V167.229V179.348L64.7133 178.817V161.037ZM66.8817 159.268L65.9524 160.02L65.6426 177.932L66.5719 177.269L66.8817 159.268ZM68.9173 157.631L68.1208 158.25L67.8553 176.384L68.6076 175.854L68.9173 157.631ZM71.1742 155.774L70.1564 156.614L69.8466 174.969L70.8645 174.261L71.1742 155.774ZM73.6081 153.828L72.4576 154.756L72.1478 173.377L73.2984 172.581L73.6081 153.828ZM75.7765 152.058L74.8472 152.81L74.5375 171.696L75.4668 171.077L75.7765 152.058ZM78.0777 150.201L77.0156 151.041L76.7058 170.192L77.7679 169.44L78.0777 150.201ZM80.2903 148.387L79.361 149.184L79.0513 168.556L79.9806 167.892L80.2903 148.387ZM83.034 146.22L81.5737 147.37L81.2639 167.008L82.7242 165.99L83.034 146.22ZM85.4679 144.23L84.3173 145.159L83.9633 165.106L85.1139 164.31L85.4679 144.23ZM88.0788 142.151L86.707 143.213L86.3972 163.425L87.7248 162.496L88.0788 142.151ZM64.9788 142.682L64.3593 143.257L64.0495 158.339L64.7576 157.764L64.9788 142.682ZM67.1915 140.603L66.2622 141.488L65.9966 156.747L66.9259 155.995L67.1915 140.603ZM69.2271 138.701L68.4305 139.409L68.2093 154.801L68.9616 154.181L69.2271 138.701ZM71.484 136.534L70.4662 137.507L70.2007 153.341L71.2185 152.545L71.484 136.534ZM73.9179 134.234L72.7673 135.34L72.5018 151.528L73.5639 150.378L73.9179 134.234ZM76.0863 132.2L75.2012 133.04L74.9357 149.537L75.8208 148.83L76.0863 132.2ZM78.4317 129.988L77.3696 131.006L77.1041 147.812L78.1662 146.928L78.4317 129.988ZM80.6443 127.865L79.715 128.794L79.4053 145.955L80.3788 145.203L80.6443 127.865ZM83.388 125.3L81.9277 126.671L81.6179 144.097L83.0783 142.947L83.388 125.3ZM85.8219 123L84.6714 124.106L84.3616 141.797L85.5122 140.869L85.8219 123ZM88.4329 120.523L87.061 121.806L86.8398 139.851L88.2116 138.746L88.4329 120.523ZM57.4116 130.873L56.615 131.713L56.3495 147.238L57.1461 146.53L57.4116 130.873ZM59.3587 128.75L58.6949 129.502L58.4294 145.291L59.0932 144.672L59.3587 128.75ZM61.3058 126.627L60.642 127.379L60.288 143.478L60.9518 142.815L61.3058 126.627ZM63.2972 124.504L62.5892 125.256L62.3236 141.532L63.0317 140.869L63.2972 124.504ZM65.3328 122.292L64.5806 123.133L64.315 139.763L65.0673 139.055L65.3328 122.292ZM67.5012 119.904L66.6162 120.921L66.3064 137.861L67.2357 136.976L67.5012 119.904ZM69.5369 117.693L68.7846 118.533L68.5191 135.782L69.2713 135.075L69.5369 117.693ZM71.838 115.216L70.8202 116.322L70.5547 134.013L71.5283 133.084L71.838 115.216ZM74.2719 112.606L73.1214 113.845L72.8116 131.536L73.9622 130.431L74.2719 112.606ZM76.4403 110.218L75.5553 111.235L75.2455 129.413L76.1748 128.573L76.4403 110.218ZM78.7857 107.697L77.7237 108.847L77.4139 127.335L78.476 126.362L78.7857 107.697ZM80.9984 105.264L80.0691 106.326L79.7593 125.167L80.6886 124.239L80.9984 105.264ZM83.7421 102.301L82.2817 103.893L81.9719 123.044L83.4323 121.673L83.7421 102.301ZM86.176 99.6916L85.0254 100.93L84.7156 120.479L85.8662 119.373L86.176 99.6916ZM88.8754 96.7725L87.4593 98.3205L87.1495 118.179L88.5214 116.897L88.8754 96.7725ZM52.8093 132.907C52.7649 132.763 52.7649 132.609 52.8093 132.465L53.0748 119.196L31.6121 145.026L26.9213 280.764L85.7334 275.722L86.1317 258.429L60.7748 263.25L59.2702 263.559V262.011L59.7127 240.516L60.288 221.63L61.5714 161.081L61.8811 145.822L54.5351 152.412L52.3667 154.447V151.439L52.8093 132.907ZM57.8984 113.579L57.1461 114.464L56.9248 127.954L57.6771 127.113L57.8984 113.579ZM59.8455 111.28L59.1817 112.076L58.9604 125.742L59.6242 124.99L59.8455 111.28ZM61.8369 108.98L61.1288 109.776V123.619L61.8369 122.867V108.98ZM63.8282 106.636L63.1202 107.476L62.8547 121.496L63.5627 120.744L63.8282 106.636ZM65.8639 104.247L65.1116 105.132L64.7133 119.418L65.4656 118.577L65.8639 104.247ZM67.811 101.726L66.8817 102.788L66.6604 117.206L67.5898 116.189L67.811 101.726ZM69.8466 99.3378L69.0944 100.222L68.8731 114.995L69.6254 114.154L69.8466 99.3378ZM72.1478 96.6398L71.13 97.834L70.9087 112.606L71.8823 111.501L72.1478 96.6398ZM74.5817 93.765L73.5639 95.0918L73.2984 110.085L74.449 108.847L74.5817 93.765ZM76.7501 91.1997L75.865 92.2612L75.5995 107.52L76.5288 106.503L76.7501 91.1997ZM79.0955 88.4575L78.0334 89.6959V105.132L79.0955 103.982V88.4575ZM81.3524 85.848L80.3788 86.9537L80.1133 102.611L81.0869 101.726L81.3524 85.848ZM84.0961 82.6193L82.6357 84.3442L82.4145 100.134L83.8748 98.5417L84.0961 82.6193ZM86.53 79.7887L85.3352 81.1155L85.0696 97.3032L86.2645 96.0648L86.53 79.7887ZM89.2294 76.6042L87.7691 78.2849L87.5036 94.6053L88.9197 93.0573L89.2294 76.6042ZM40.7282 110.793L39.9317 111.81L39.6219 131.315L40.3742 130.386L40.7282 110.793ZM45.1535 104.778L44.534 105.574L44.2242 125.61L45.0208 124.681L45.1535 104.778ZM51.7915 95.9322L50.9949 97.3032L50.6851 118.091L51.5702 117.029L51.7915 95.9322ZM55.8627 90.5805V90.8016L55.3759 91.4651L55.0219 112.783L55.6857 111.987L55.8627 90.5805ZM57.9426 87.8825L57.1461 88.8998L56.969 110.572L57.7656 109.687L57.9426 87.8825ZM32.8955 120.877L32.4087 121.496L32.0989 140.117L32.6299 139.542L32.8955 120.833V120.877ZM34.7098 118.489L34.1788 119.152L33.869 137.994L34.4001 137.374L34.7098 118.489ZM36.5685 116.056L35.9932 116.808L35.6834 135.871L36.2587 135.163L36.5685 116.056ZM38.3828 113.624L37.8518 114.376L37.4978 133.615L38.1616 132.686L38.4713 113.314L38.3828 113.624ZM42.8081 107.564L41.6575 109.112L41.3035 128.838L42.5426 127.379L42.8966 107.476L42.8081 107.564ZM47.2334 101.593L46.1271 103.097L45.7731 123.354L46.9236 122.027L47.2334 101.593ZM49.2248 98.9839L48.5167 99.9127L48.207 120.479L48.9593 119.55L49.3133 98.8955M53.7386 93.2784L52.8978 94.3842L52.588 115.437L53.119 114.774L53.4731 114.331L53.8271 93.19L53.7386 93.2784ZM60.288 85.3173L59.6242 86.2018L59.2259 108.316L59.934 107.52L60.288 85.3173ZM62.2794 82.7078L61.5714 83.6366L61.2173 105.751L61.8811 104.955L62.2794 82.7078ZM64.2708 80.0983L63.5185 81.0271L63.1645 103.54L63.8725 102.699L64.2708 80.0983ZM66.3064 77.4003L65.5099 78.4176L65.1558 101.195L65.9081 100.311L66.3064 77.4003ZM68.4748 74.5254L67.5455 75.7196L67.1915 98.807L68.1208 97.7455L68.4748 74.5254ZM70.5104 71.8275L69.7581 72.8447L69.1386 96.2418L69.9352 95.3572L70.5104 71.8275ZM72.8116 68.7757L71.7938 70.1468L71.4398 93.8534L72.4133 92.6592L72.8116 68.7757ZM75.2897 65.5912L74.0949 67.095L73.5639 91.1555L74.7145 89.8286L75.2897 65.5912ZM77.4581 62.6721L76.5288 63.9105L75.9093 88.4575L76.8386 87.3518L77.4581 62.6721ZM79.8036 59.6204L78.7415 60.9914L77.9892 85.7595L79.0513 84.4769L79.8036 59.6204ZM82.0604 56.657L81.0869 57.8954L80.6886 83.0174L81.6179 81.8674L82.0604 56.657ZM84.8041 53.0303L83.2995 54.9763L82.9013 80.3636L84.3616 78.6387L84.8041 53.0303ZM87.238 49.8458L86.0875 51.3496L85.6449 77.1792L86.7955 75.8081L87.238 49.8458ZM89.9817 46.219L88.5214 48.1651L88.0788 74.3043L89.4949 72.6236L89.9817 46.219ZM91.9731 69.7487L92.5926 42.725L91.2651 44.5383L90.7783 71.0756L91.9731 69.7487ZM91.2651 90.492L91.6633 73.6851L90.5128 75.0562L90.203 91.642L91.2651 90.492ZM90.6898 114.995L91.2651 94.2515L90.203 95.4014L89.849 115.702L90.6898 114.995ZM90.1587 137.109L90.6012 118.356L89.7162 119.241L89.4064 137.773L90.1587 137.109ZM89.6277 161.081L90.1145 140.382L89.3179 141.045L88.9639 161.523L89.6277 161.081ZM89.0966 183.417L89.5392 164.177L88.9197 164.619L88.5656 183.682L89.0966 183.417ZM88.5214 207.477L89.0082 186.336L88.5214 186.601L88.1673 207.654L88.5214 207.477ZM87.9903 230.299L88.4771 210.263H88.1231L87.7691 230.211L87.9903 230.299ZM87.4151 255.686L87.9461 232.953L87.5478 255.642L87.4151 255.686ZM97.0179 68.4219L97.549 45.6441L94.8053 46.0421L94.2743 68.7315L97.0179 68.4219ZM96.5754 89.2978L96.9737 70.766L94.23 71.0756L93.7875 89.4305L96.5754 89.2978ZM96.0444 113.579L96.5311 91.8189L93.7432 92.1285L93.2122 113.801L96.0444 113.579ZM95.6903 136.092L96.1771 116.056L93.3449 116.322L92.8582 136.313L95.6903 136.092ZM95.1593 160.152L95.6903 138.613L92.8582 138.834L92.3714 160.329L95.1593 160.152ZM94.6725 182.709L95.1151 162.673H92.2386L91.7961 182.709H94.6725ZM94.1415 206.769L94.6283 185.23H91.7076L91.2651 206.902L94.1415 206.769ZM93.4777 229.99L93.9202 209.512H90.9995L90.5128 229.99H93.4777ZM106.444 67.5373L106.886 44.5826L100.116 45.2902L99.5846 68.1123L106.444 67.5373ZM106.09 88.4575L106.4 69.9257L99.4961 70.766L99.0978 89.2094L106.09 88.4575ZM105.647 112.783L106.046 90.9343L99.0093 91.642L98.5225 113.447L105.647 112.783ZM105.249 135.384L105.603 115.304L98.4783 115.924L98.0357 135.959L105.249 135.384ZM104.806 159.577L105.205 137.905L97.9915 138.48L97.5047 160.064L104.806 159.577ZM104.541 182.178L104.895 162.01L97.5932 162.496L97.1507 182.576L104.541 182.178ZM104.143 206.283L104.541 184.655L97.1064 185.097L96.6639 206.637L104.143 206.283ZM103.7 229.415L104.098 208.804L96.5311 209.158L96.0886 229.68L103.7 229.415ZM116.533 66.3431L116.932 43.1673L109.364 44.2287L108.966 67.0066L116.533 66.3431ZM116.135 87.5729L116.489 68.8642L108.922 69.7487L108.568 88.3248L116.135 87.5729ZM115.693 112.031L116.091 89.917L108.524 90.7132L108.17 112.562L115.693 112.031ZM115.294 134.677L115.648 114.552L108.125 115.216L107.771 135.296L115.294 134.677ZM114.896 159.047L115.25 137.109L107.727 137.728L107.329 159.223L114.896 159.047ZM114.454 181.824L114.852 161.568L107.285 162.054L106.931 182.222L114.454 181.824ZM114.055 206.062L114.409 184.301L106.886 184.743L106.488 206.416L114.055 206.062ZM113.613 229.282L114.011 208.583L106.444 208.892L106.09 229.547L113.613 229.282ZM126.889 65.1489L127.287 41.7077L119.587 42.8134L119.144 66.0778L126.889 65.1489ZM126.535 86.5114L126.667 67.4488L118.923 68.3776L118.613 87.0864L126.535 86.5114ZM126.092 111.103L126.49 88.9883L118.746 89.7844L118.348 111.899L126.092 111.103ZM125.694 133.836L126.048 113.624L118.304 114.331L117.817 134.234L125.694 133.836ZM125.251 158.339L125.65 136.225L117.817 136.755L117.419 158.649L125.251 158.339ZM124.853 181.205L125.207 160.86L117.463 161.391L116.976 181.338L124.853 181.205ZM124.41 205.575L124.809 183.726L117.065 184.169L116.666 205.929L124.41 205.575ZM123.968 228.884L124.366 208.096L116.622 208.45L116.268 229.193L123.968 228.884ZM136.846 63.7336L137.288 40.1155L129.677 41.177L129.278 64.6182L136.846 63.7336ZM136.492 85.273L136.801 66.3431L129.234 67.2277L128.88 86.0691L136.492 85.273ZM136.049 109.997L136.447 87.8825L128.836 88.4575L128.438 110.572L136.049 109.997ZM135.518 132.686L135.872 112.429L128.26 113.093L127.906 133.305L135.518 132.686ZM135.075 157.366L135.474 135.252L127.862 135.871L127.464 157.985L135.075 157.366ZM134.677 180.321L135.031 159.887L127.42 160.373L127.066 180.763L134.677 180.321ZM134.235 204.779L134.633 182.665L127.021 183.107L126.667 205.221L134.235 204.779ZM133.836 228.22L134.19 207.3L126.667 207.875L126.313 228.707L133.836 228.22ZM147.466 62.4952L147.82 38.6117L139.943 39.8059L139.501 63.5125L147.466 62.4952ZM147.112 84.0346L147.422 64.8836L139.324 65.8124L138.97 84.8307L147.112 84.0346ZM146.758 108.891L147.068 86.5557L138.925 87.3518L138.571 109.466L146.758 108.891ZM146.404 131.713L146.714 111.368L138.527 112.12L138.129 132.686L146.404 131.713ZM146.006 156.57L146.36 134.455L138.085 135.119L137.686 157.233L146.006 156.57ZM145.696 179.613L146.006 159.223L137.642 159.798L137.288 180.276L145.696 179.613ZM145.298 204.204L145.652 182.09L137.244 182.576L136.846 204.691L145.298 204.204ZM144.944 227.734L145.254 206.725L136.801 207.079L136.447 228.043L144.944 227.734ZM157.644 61.3453L157.954 37.1964L150.254 38.3021L149.9 62.2299L157.644 61.3453ZM157.335 83.15L157.644 63.8663L149.9 64.7509L149.635 84.0346L157.335 83.15ZM157.025 108.139L157.29 85.6711L149.546 86.4672L149.192 108.847L157.025 108.139ZM156.715 131.006L156.981 110.66L149.148 111.324L148.794 131.669L156.715 131.006ZM156.405 156.039L156.671 133.527L148.794 134.19L148.44 156.57L156.405 156.039ZM156.096 179.215L156.361 158.56L148.484 159.223L148.174 179.79L156.096 179.215ZM155.742 203.895L156.051 181.78L148.086 182.267L147.776 204.381L155.742 203.895ZM155.432 227.557L155.742 206.416L147.732 206.769L147.422 227.822L155.432 227.557ZM168.442 60.0626L168.708 35.6926L160.432 36.8425L160.123 61.0357L168.442 60.0626ZM168.177 82.177V62.6721L159.857 63.6452V83.0174L168.177 82.177ZM167.867 107.255L168.132 84.6538L159.813 85.4942L159.503 108.007L167.867 107.255ZM167.601 130.209V109.776L159.547 110.572L159.238 130.961L167.601 130.209ZM167.292 155.376L167.601 132.686L159.238 133.35L158.928 155.906L167.292 155.376ZM167.026 178.64L167.292 157.897L158.839 158.472L158.574 179.126L167.026 178.64ZM166.805 203.452L167.026 181.338L158.574 181.824L158.308 203.939L166.805 203.452ZM166.495 227.159L166.761 205.885L158.264 206.283L157.998 227.468L166.495 227.159ZM178.266 59.0896V34.5427L171.274 35.383L170.92 59.753L178.266 59.0896ZM178.266 81.204V61.5664L171.009 62.451L170.92 81.8232L178.266 81.204ZM178.266 106.414V83.725L170.92 84.3442L170.655 106.945L178.266 106.414ZM178.266 129.413V108.935L170.876 109.599V130.033L178.266 129.413ZM177.381 154.801V131.979L169.947 132.598L169.681 155.331L177.381 154.801ZM177.381 178.153V157.322L169.858 157.808V178.596L177.381 178.153ZM177.381 203.098V180.674L169.814 181.117L169.283 203.452L177.381 203.098ZM177.381 226.938V205.575L169.725 205.929L169.504 227.247L177.381 226.938ZM180.081 205.487V226.849L188.621 226.363V204.868L180.081 205.487ZM180.081 180.542V202.966L189.33 202.523V180.011L180.081 180.542ZM180.081 157.145V178.021L189.33 177.49V156.526L180.081 157.145ZM180.081 131.757V154.668L189.33 154.049V131.006L180.081 131.757ZM180.302 108.758V129.236L189.374 128.263V107.697L180.302 108.758ZM180.302 83.5039V106.237L189.595 105.397V82.5751L180.302 83.5039ZM180.302 61.3895V81.0271L189.551 80.0983V60.2838L180.302 61.3895ZM180.302 34.2331V58.8685L189.595 57.7627L189.816 32.9504L180.302 34.2331ZM178.311 253.254L187.515 252.988V229.061L178.311 229.415V253.254ZM168.044 253.563L175.788 253.342V229.503L168.088 229.768L168.044 253.563ZM156.981 253.873L165.521 253.608L166.495 229.636L157.954 229.99L156.981 253.873ZM146.404 254.183L154.502 253.961L155.476 229.99L147.422 230.299L146.404 254.183ZM135.341 254.492L144.369 254.006L144.723 230.432L136.226 230.741L135.341 254.492ZM125.251 254.802L132.819 254.581L133.261 231.051L125.65 231.316L125.251 254.802ZM115.029 255.067H122.729L123.127 231.626L115.427 231.891L115.029 255.067ZM104.983 255.377H112.506L113.392 231.537L105.869 231.803L104.983 255.377ZM94.7168 255.642H102.461L102.859 232.334L95.2478 232.643L94.7168 255.642ZM89.2294 255.642H92.2386L92.7254 232.422H89.8047L89.2294 255.642ZM97.6375 40.6904L94.938 41.0885V43.4769L97.6817 43.123L97.6375 40.6904ZM106.931 39.3636L100.116 40.3366V42.7692L106.931 41.7962V39.3636ZM117.02 37.9925L109.453 39.054V41.4423L117.02 40.3808V37.9925ZM127.243 36.5329L119.543 37.6387V40.0712L127.243 38.9655V36.5329ZM137.377 35.1176L129.765 36.1791V38.6117L137.377 37.5502V35.1176ZM147.865 33.6581L139.943 34.7638V37.1964L147.953 36.0907L147.865 33.6581ZM158.043 32.1985L150.387 33.3042V35.7368L158.043 34.6753V32.1985ZM168.796 30.6948L160.565 31.8447V34.3215L168.84 33.1716L168.796 30.6948ZM178.532 29.3237L171.319 30.3409V32.8177L178.532 31.8447V29.3237ZM190.303 27.6872L181.01 29.0141V31.4909L190.303 30.164V27.6872ZM92.4599 39.8059L92.1944 19.8145L31.8777 109.333L31.3024 121.143L92.4156 40.602V39.8059H92.4599ZM94.6725 17.9569L94.938 38.3906L194.33 24.5912V24.2816V2.9191L94.6725 17.9569ZM74.0507 341.269L105.691 345.117L167.646 343.304L188.754 342.419L546.185 324.727L297.661 330.256L170.079 335.608L131.093 334.679L102.196 335.608H100.956V334.723L74.1392 335.298L74.0507 341.269ZM405.948 81.204L406.346 97.9224L414.71 98.6301L414.311 82.0443L405.948 81.204ZM405.461 55.7282L406.036 78.6829L414.311 79.6117L413.78 56.7897L405.461 55.7282ZM394.973 80.054L395.327 96.9052L404.177 97.7013L403.735 80.9386L394.973 80.054ZM394.486 54.4898L394.929 77.533L403.514 78.4176L402.938 55.4629L394.486 54.4898ZM384.396 78.9483L384.662 95.9764L392.804 96.6841L392.539 79.6117L384.396 78.9483ZM383.998 53.2956L384.352 76.4273L392.45 77.2676L392.185 54.2244L383.998 53.2956ZM373.245 77.7984V95.0033L382.095 95.7552L381.83 78.6829L373.245 77.7984ZM372.846 52.0572L373.2 75.2773L382.051 76.1619L381.52 53.0745L372.846 52.0572ZM361.473 76.6042L361.783 93.9861L370.943 94.7822V77.533L361.473 76.6042ZM361.208 50.7304L361.606 74.0832L370.811 75.012L370.501 51.7476L361.208 50.7304ZM349.835 75.1889L350.189 92.8804L359.305 93.7207L359.039 76.2946L349.835 75.1889ZM349.26 49.1824L349.746 72.6678L358.995 73.6409L358.597 50.2439L349.26 49.1824ZM339.347 94.3399L339.612 116.012L348.153 116.675L347.711 95.0476L339.347 94.3399ZM339.081 74.2601L339.347 91.9516L347.711 92.6592L347.357 74.9677L339.081 74.2601ZM338.727 48.1651L339.081 71.739L347.312 72.5794L346.826 49.0939L338.727 48.1651ZM329.611 208.229L329.833 228.618H338.683L338.418 208.273L329.611 208.229ZM329.611 184.345V205.708L338.462 205.973L338.152 184.699L329.611 184.345ZM329.611 162.585V181.869L338.462 182.178L338.196 163.027L329.611 162.585ZM329.346 138.215V160.064L338.196 160.506L337.887 138.746L329.346 138.215ZM329.346 117.825V135.738L337.887 136.225L337.665 118.533L329.346 117.825ZM329.08 93.5438V115.304L337.577 115.968L337.267 94.2957L329.08 93.5438ZM329.08 73.1544V90.8459L337.488 91.5977V73.9062L329.08 73.1544ZM328.815 46.9709L329.08 70.6333L337.4 71.4737L337.09 47.8997L328.815 46.9709ZM317.397 207.875V228.397H327.089V207.964L317.397 207.875ZM317.397 183.903V205.398L327.045 205.664V184.257L317.397 183.903ZM317.397 161.789V181.249L327.045 181.603V162.275L317.397 161.789ZM316.955 137.507V159.622L326.602 160.064L326.381 138.215L316.955 137.507ZM316.955 116.852V134.986L326.558 135.561V117.604L316.955 116.852ZM316.955 92.4823V114.331L326.514 115.127V93.3227L316.955 92.4823ZM316.734 71.9159V89.9613L326.292 90.8016V72.889L316.734 71.9159ZM316.734 45.3787V69.1738L326.248 70.1468V46.4402L316.734 45.3787ZM305.892 207.344V227.955H315.76V207.433L305.892 207.344ZM305.892 183.24V204.823L315.716 205.089V183.594L305.892 183.24ZM305.892 161.125V180.719L315.627 181.072V161.612L305.892 161.125ZM305.892 136.534V158.649L315.627 159.135V137.021L305.892 136.534ZM305.892 115.614V134.013L315.583 134.588V116.41L305.892 115.614ZM305.892 91.1555V113.27L315.539 114.022V92.1285L305.892 91.1555ZM305.892 70.3679V88.6344L315.495 89.4748V71.3852L305.892 70.3679ZM305.892 43.8307V67.7584L315.45 68.7315V44.9364L305.892 43.8307ZM292.439 207.212V227.911H302.661V207.256L292.439 207.212ZM292.439 183.019V204.691L302.617 205V183.372L292.439 183.019ZM292.439 160.904V180.63L302.528 181.028V161.391L292.439 160.904ZM292.439 136.18V158.295L302.44 158.781V136.667L292.439 136.18ZM292.439 115.039V133.659L302.351 134.278V115.835L292.439 115.039ZM292.439 90.4478V112.562L302.307 113.358V91.2439L292.439 90.4478ZM292.439 69.5276V87.9268L302.219 88.8113V70.5449L292.439 69.5276ZM292.439 42.9903V67.0066L302.174 68.0238V44.0961L292.439 42.9903ZM279.473 206.858V227.69H289.916V206.946L279.473 206.858ZM279.473 182.532V204.337L289.961 204.646V182.93L279.473 182.532ZM279.473 160.108V180.011L290.005 180.409V160.639L279.473 160.108ZM279.473 135.296V157.41L290.049 157.941V135.826L279.473 135.296ZM279.473 113.889V132.775L290.093 133.394V114.729L279.473 113.889ZM279.473 89.1652V111.28L290.138 112.12V90.0055L279.473 89.1652ZM279.473 68.0238V86.6441L290.138 87.5729V69.1295L279.473 68.0238ZM279.473 41.4866V65.6355L290.226 66.7412V42.725L279.473 41.4866ZM268.011 206.548V227.468H276.862V206.592L268.011 206.548ZM268.011 182.09V204.204L276.862 204.47V182.621L268.011 182.09ZM268.011 159.533V179.613L276.862 179.923V159.975L268.011 159.533ZM268.011 134.588V157.056L276.862 157.499V135.119L268.011 134.588ZM268.011 112.96V132.111L276.862 132.642V113.668L268.011 112.96ZM268.011 88.1479V110.262L276.862 110.97V88.8556L268.011 88.1479ZM268.011 66.8296V85.6269L276.862 86.423V67.7584L268.011 66.8296ZM268.011 40.2924V64.5297L276.862 65.4585V41.3097L268.011 40.2924ZM256.948 206.416V227.468H266.595V206.504L256.948 206.416ZM256.948 181.913V204.027L266.462 204.293V182.178L256.948 181.913ZM256.948 159.179V179.392L266.374 179.746V159.622L256.948 159.179ZM256.948 134.146V156.658L266.285 157.145V134.677L256.948 134.146ZM256.948 112.031V131.404L266.197 131.934V112.783L256.948 112.031ZM256.948 87.1306V109.51L266.108 110.262V87.9268L256.948 87.1306ZM256.948 65.6355V84.6096L265.799 85.4057V66.5643L256.948 65.6355ZM256.948 38.7886V63.1587L265.799 64.0432V39.7616L256.948 38.7886ZM242.123 205.841V226.982H253.496V206.15L242.123 205.841ZM242.123 181.161V203.275L253.452 203.585V181.471L242.123 181.161ZM242.123 158.25V178.684L253.408 179.082V158.825L242.123 158.25ZM242.123 133.084V155.774L253.363 156.304V133.748L242.123 133.084ZM242.123 110.97V130.607L253.319 131.271V111.855L242.123 110.97ZM242.123 85.9365V108.449L253.275 109.333V86.9095L242.123 85.9365ZM242.123 64.2644V83.4154L253.186 84.3885V65.4143L242.123 64.2644ZM242.123 37.2406V61.9202L253.142 63.0702V38.479L242.123 37.2406ZM228.847 205.31V226.584H239.468V205.752L228.847 205.31ZM228.847 180.498V202.612L239.424 202.922V180.807L228.847 180.498ZM228.847 157.454V178.021L239.468 178.419V158.162L228.847 157.454ZM228.847 132.156V154.933L239.424 155.464V132.952L228.847 132.156ZM228.847 109.732V129.634L239.424 130.254V110.572L228.847 109.732ZM228.847 84.6096V107.21L239.424 108.051V85.7153L228.847 84.6096ZM228.847 62.4952V82.2655L239.38 83.1943V63.999L228.847 62.4952ZM228.847 35.383V59.9742L239.38 61.0799V36.9752L228.847 35.383ZM214.023 58.8242V34.0561L203.8 32.9062V57.7627L214.023 58.8242ZM214.023 80.9386V61.3453L203.8 60.2838V80.054L214.023 80.9386ZM214.023 106.193V83.4597L203.8 82.5308V105.353L214.023 106.193ZM214.023 128.927V108.67L203.8 107.874V128.308L214.023 128.927ZM214.023 154.358V131.404L203.8 130.829V153.828L214.023 154.358ZM214.023 177.623V156.835L203.8 156.349V177.269L214.023 177.623ZM214.023 202.568V180.144L203.8 179.746V202.258L214.023 202.568ZM214.023 226.451V205.044L203.8 204.779V226.274L214.023 226.451ZM216.634 205.133V226.495H227.564V205.398L216.634 205.133ZM216.634 180.232V202.612L227.431 202.922V180.586L216.634 180.232ZM216.634 156.968V177.711L227.298 178.109V157.499L216.634 156.968ZM216.634 131.581V154.491L227.21 154.978V132.2L216.634 131.581ZM216.634 108.891V129.059L227.077 129.679V109.732L216.634 108.891ZM216.634 83.6808V106.37L226.989 107.21V84.5654L216.634 83.6808ZM216.634 61.5664V81.1155L226.856 82.0001V62.6279L216.634 61.5664ZM216.634 34.3215V59.0454L226.812 60.1069V35.383L216.634 34.3215ZM559.682 235.341H555.257L555.567 255.952H559.992L559.682 235.341ZM567.117 235.341H562.16V255.731H567.825L567.117 235.341ZM554.062 233.041H568.267H569.197V234.412L570.126 256.792V257.942H569.197L554.46 258.252H553.354V257.19L552.956 234.412V233.262L554.062 233.041ZM535.741 235.032H531.316L531.626 255.908H536.051L535.741 235.032ZM543.176 235.032H538.219V255.686H543.884L543.176 235.032ZM530.165 232.687H544.326H545.388V233.705L546.273 256.35V257.5H545.123L530.342 257.809H529.369V256.704L529.015 233.616V232.466L530.165 232.687ZM557.248 194.032H552.823L553.133 214.642H557.558L557.248 194.032ZM564.771 194.606H559.815V214.996H565.479L564.771 194.606ZM551.495 191.953L565.656 192.439H566.718V193.457L567.648 215.836V216.986H566.453H551.672H550.566V215.925L550.212 193.059V191.953H551.495ZM533.175 193.457H528.749L529.369 214.067H533.794L533.175 193.457ZM540.609 193.722H535.697V214.333H541.361L540.609 193.722ZM527.333 191.024L541.538 191.555H542.601V192.572L543.53 215.217V216.367H542.645H527.909H526.802V215.306L526.492 192.174V191.024H527.333ZM553.885 153.916L549.681 153.651V173.598H554.106L553.885 153.916ZM561.85 154.403L556.363 154.049V173.863L562.293 174.084L561.85 154.403ZM548.575 151.439L562.824 152.368H563.842V153.385L564.417 175.146V176.252H563.355L548.486 175.721H547.424V151.262L548.575 151.439ZM530.165 151.926L525.74 151.66V172.492H530.165V151.926ZM538.618 152.412L532.644 152.058V172.625H539.016L538.618 152.412ZM524.545 149.405L539.768 150.289H540.83V151.351L541.361 173.863V174.969H540.211L524.457 174.704H523.262V149.228L524.545 149.405ZM552.336 113.535L548.176 113.27V133.129H552.602L552.336 113.535ZM560.346 114.022L554.859 113.668V133.482L560.744 133.704L560.346 114.022ZM547.07 111.058L561.364 111.987H562.382V113.004L562.957 134.765V135.871H561.85L547.026 135.34H545.919V110.926L547.07 111.058ZM529.369 111.456L524.944 111.191V132.067H529.369V111.456ZM537.821 111.943L531.847 111.589V132.156H538.219L537.821 111.943ZM523.705 108.935L538.972 109.82H540.034V110.881L540.565 133.394V134.5H539.414L523.66 134.234H522.465V108.891L523.705 108.935ZM507.242 250.865V232.334H508.481H517.067H518.306V252.104H507.242V250.865ZM509.721 234.899V249.627H515.783V235.032L509.721 234.899ZM491.002 250.865V232.334H492.285H500.87H502.065V252.104H491.002V250.865ZM493.524 234.899V249.627H499.587V235.032L493.524 234.899ZM505.782 208.362V189.874H507.065H515.65H516.89V209.379H505.782V208.362ZM508.305 192.351V207.123H514.367V192.528L508.305 192.351ZM490.338 208.362V189.874H491.621H500.206H501.401V209.379H490.338V208.362ZM492.86 192.351V207.123H498.923V192.528L492.86 192.351ZM503.791 166.123V148.122H505.118L513.703 148.741H514.854V168.069H513.571L504.986 167.671H503.791V166.123ZM506.269 150.776V164.929L512.376 165.194V151.262L506.269 150.776ZM488.568 165.504V147.503H489.895L498.48 148.122H499.675V167.052H498.348L489.541 166.787H488.346L488.568 165.504ZM491.09 150.157V164.31L497.153 164.575V150.643L491.09 150.157ZM502.95 124.946V107.255H504.277L512.774 107.874H513.969V126.671H512.641L504.145 126.273H502.817L502.95 124.946ZM505.428 109.732V123.84L511.446 124.106V110.218L505.428 109.732ZM486.576 123.84V105.707H487.904L496.489 106.326H497.64V125.256H496.356L487.771 124.858H486.576V123.84ZM489.054 108.537V122.514L495.161 122.823V108.847L489.054 108.537ZM433.915 125.61L433.517 101.726V100.488H434.756L476.221 104.468H477.283V105.486L477.681 128.263V129.458H476.487L434.977 126.45H433.915V125.61ZM469.318 126.981L475.513 127.423L475.115 106.901L468.831 106.149L469.318 126.981ZM460.821 126.362L467.017 126.804L466.574 106.149L460.379 105.53L460.821 126.362ZM451.97 125.742L458.387 126.185L458.033 105.264L451.616 104.645L451.97 125.742ZM443.474 125.123L449.714 125.565L449.36 104.424L443.12 103.849L443.474 125.123ZM435.73 103.009L436.084 124.504L441.173 124.858L440.863 103.628L435.73 103.009ZM437.367 255.908L436.969 232.157V230.918H438.208L479.673 232.112H480.691V233.174L481.089 255.908V257.102H479.894L438.385 256.881H437.323L437.367 255.908ZM472.769 254.89H478.921L478.522 234.412H472.371L472.769 254.89ZM464.273 254.89H470.468L470.114 234.412H463.919L464.273 254.89ZM455.422 254.89H461.839L461.485 234.014H455.068L455.422 254.89ZM446.926 254.89H453.165L452.811 233.793H446.572L446.926 254.89ZM439.181 233.395L439.535 254.846H444.625L444.315 233.528L439.181 233.395ZM433.738 211.856L433.34 188.105V186.911H434.579L476.044 188.326H477.106V189.387L477.504 212.121V213.315H476.31L434.845 212.917H433.738V211.856ZM469.141 211.015H475.292L474.938 190.537L468.831 190.184L469.141 211.015ZM460.644 211.015H466.839L466.574 190.184L460.379 189.962L460.644 211.015ZM451.794 211.015H458.21L458.077 190.184L451.661 189.962L451.794 211.015ZM443.297 211.015H449.537L449.183 189.918H442.943L443.297 211.015ZM435.553 189.52L435.951 210.971H440.996L440.863 189.387L435.553 189.52ZM433.915 168.069L433.517 144.318V143.124H434.756L476.221 145.557H477.283V146.618L477.681 169.352V170.546H476.487L434.977 169.131H433.915V168.069ZM469.318 168.069H475.513L475.115 147.591L468.964 147.238L469.318 168.069ZM460.821 167.804H467.061L466.707 147.105L460.511 146.707L460.821 167.804ZM451.97 167.494H458.387L458.033 146.574L451.616 146.22L451.97 167.494ZM443.474 167.229L449.714 167.45L449.404 145.955H443.164L443.474 167.229ZM435.73 145.513L436.084 166.964H441.173L440.863 145.601L435.73 145.513ZM370.589 256.527L370.058 230.432V229.105H371.342L417.099 230.432H418.294V231.626L418.737 256.704V257.986H417.453L371.696 257.765H370.501L370.589 256.527ZM409.488 255.421H416.303L415.904 232.82L409.134 232.599L409.488 255.421ZM400.15 255.421H407.01L406.611 232.599H399.796L400.15 255.421ZM390.547 255.421H397.628L397.274 232.378H390.193L390.547 255.421ZM381.166 255.421H388.069L387.76 232.112H380.856L381.166 255.421ZM372.669 231.714L373.068 255.377H378.909L378.555 231.847L372.669 231.714ZM370.589 211.369L370.147 185.186V183.859H371.43L417.188 185.584H418.383V186.778L418.825 211.811V213.138H417.542L371.784 212.563H370.589V211.369ZM409.488 210.573H416.303L415.904 187.972H409.134L409.488 210.573ZM400.15 210.573H407.01L406.611 187.751L399.796 187.486L400.15 210.573ZM390.547 210.573H397.628L397.274 187.53L390.193 187.265L390.547 210.573ZM381.166 210.573H388.069L387.76 186.999L380.856 186.734L381.166 210.573ZM372.669 186.822L373.068 210.485H378.909L378.555 186.999L372.669 186.822ZM370.589 165.681L370.147 139.497V138.171H371.474L417.188 140.869H418.383V141.532L418.825 166.61V168.069H417.498L371.784 166.521H370.589V165.681ZM409.488 165.681L416.303 165.946L415.904 143.345L409.134 142.947L409.488 165.681ZM400.15 165.371L407.01 165.592L406.611 142.77L399.796 142.372L400.15 165.371ZM390.547 165.062L397.628 165.283L397.274 142.24L390.193 141.842L390.547 165.062ZM381.166 164.752L388.069 164.973L387.76 141.267L380.856 140.869L381.166 164.752ZM372.669 140.824L373.068 164.442H378.688L378.334 140.913L372.669 140.824ZM573.312 95.313L579.419 95.9322L578.799 75.1889L572.648 74.4812L573.312 95.313ZM564.904 94.5168L570.79 95.0918L570.126 74.7908L564.24 74.1274L564.904 94.5168ZM556.053 93.6323L562.47 94.2515L561.806 73.8178L555.478 73.1101L556.053 93.6323ZM546.805 92.7477L553.531 93.4111L552.956 72.8447L546.185 72.0486L546.805 92.7477ZM536.98 91.8189L544.282 92.5265L543.663 71.7833L536.317 70.766L536.98 91.8189ZM528.13 90.9343L534.679 91.5535L533.794 70.2795L527.245 69.5276L528.13 90.9343ZM518.792 90.0055L525.607 90.6689L524.944 69.2622L518.084 68.4661L518.792 90.0055ZM508.172 88.4575L516.004 89.2094L515.429 68.0238L507.552 67.1392L508.172 88.4575ZM499.1 87.5729L505.694 88.1921L505.074 66.8296L498.392 66.3431L499.1 87.5729ZM489.054 86.5999L496.622 87.3518L496.002 65.8124L488.435 64.972L489.054 86.5999ZM478.921 85.6269L486.532 86.3345L485.912 64.6624L478.301 63.8221L478.921 85.6269ZM468.964 84.6538L476.398 85.3615L475.779 63.5125L468.3 62.6721L468.964 84.6538ZM459.184 84.0346L466.441 84.7423L465.822 62.6279L458.564 61.9202L459.184 84.0346ZM448.519 82.9731L456.706 83.7693L456.042 61.6549L448.121 60.7261L448.519 82.9731ZM438.606 82.0443L445.996 82.752L445.598 60.6376L437.854 59.753L438.606 82.0443ZM428.074 81.0271L436.128 81.779L435.331 59.2665L427.366 58.3377L428.074 81.0271ZM416.922 79.6117L425.552 80.4521L424.844 57.7627L416.435 56.7897L416.922 79.6117ZM407.098 121.187L415.418 121.806L414.931 100.974L406.611 100.267L407.098 121.187ZM395.858 120.302L404.708 120.966L404.177 100.045L395.327 99.2493L395.858 120.302ZM385.104 119.506L393.335 120.125L392.937 99.0282L384.75 98.3205L385.104 119.506ZM373.864 118.622L382.715 119.285L382.405 98.0994L373.554 97.3475L373.864 118.622ZM362.226 117.737L371.342 118.445L371.032 97.3032L361.872 96.5071L362.226 117.737ZM350.676 116.897L359.526 117.56L359.172 96.1091L350.056 95.2687L350.676 116.897ZM348.242 137.109L347.932 119.418L339.745 118.798L340.011 136.49L348.242 137.109ZM348.817 161.258L348.33 139.586L339.966 139.099L340.232 160.86L348.817 161.258ZM349.348 182.797L348.906 163.779L340.055 163.337L340.32 182.488L349.348 182.797ZM349.879 206.504L349.392 185.318L340.542 185.009L340.807 206.239L349.879 206.504ZM350.41 229.238L349.968 208.981L341.117 208.76L341.382 229.061L350.41 229.238ZM341.56 254.625H351.074L350.543 231.582H341.25L341.56 254.625ZM330.098 254.625H338.949L338.639 231.493H329.788L330.098 254.625ZM317.884 254.625H327.576V231.493H317.884V254.625ZM305.449 254.625H315.362V231.361H305.538L305.449 254.625ZM292.66 254.625H302.971V231.316H292.749L292.66 254.625ZM279.782 254.625H290.138V231.228L279.605 229.99L279.782 254.625ZM268.321 254.625H277.172L277.127 229.99H268.277L268.321 254.625ZM256.063 254.625H265.843V231.095H256.196L256.063 254.625ZM242.123 254.625H253.585V229.724H242.212L242.123 254.625ZM228.847 254.625H239.512V229.459L228.892 229.238L228.847 254.625ZM215.571 254.625H226.59V229.193H215.704L215.571 254.625ZM202.915 254.625H213.093V230.741H202.915V254.625ZM196.454 230.564V252.546H200.481V228.618L196.454 230.564ZM196.454 206.548V228.088H200.525V206.548H196.454ZM196.454 181.471V204.027H200.614V181.471H196.454ZM196.454 157.941V176.915H200.88V155.995L196.454 157.941ZM196.454 132.332V155.464H200.88V132.377L196.454 132.332ZM196.454 109.289V129.856H200.88V109.422L196.454 109.289ZM196.454 83.9019V104.822L200.88 105.176V82.3539L196.454 83.9019ZM196.454 61.5222V79.6117L200.88 80.0098V60.1953L196.454 61.5222ZM196.454 34.0561V57.0551L200.88 57.4974V32.6408L196.454 34.0561ZM201.101 29.6333L196.675 29.1025V31.5793L201.101 32.1101V29.6333ZM213.846 31.137L203.623 29.8986V32.3754L213.846 33.5254V31.137ZM226.369 32.5966L216.324 31.4024V31.8447L226.369 32.9504V32.5966ZM239.38 34.1004L229.201 30.9601V33.3485L239.734 34.5427L239.38 34.1004ZM252.655 35.6926L241.725 34.41V36.7099L252.655 37.9483V35.6926ZM263.984 37.0195L255.134 35.958V36.2676L263.984 37.2406V37.0195ZM275.446 38.3463L266.595 37.2848V39.5405L275.446 40.5578V38.3463ZM288.722 39.8943L278.455 36.6656V38.8328L289.208 40.0712L288.722 39.8943ZM300.847 41.3097L291.731 38.2136V40.3366L301.334 41.4423L300.847 41.3097ZM312.884 42.725L303.9 39.8059V41.8846L313.415 42.9461L312.884 42.725ZM324.876 44.1403L315.362 43.0346V45.0691L324.832 46.1306L324.876 44.1403ZM335.585 45.3787L327.354 44.4057V46.4402L335.585 47.369V45.3787ZM346.162 46.6171L338.108 45.6883V47.6344L346.118 48.5632L346.162 46.6171ZM358.022 47.9882L348.64 46.9267V48.8285L358.022 49.89V47.9882ZM369.793 49.4035L360.5 48.2978V50.1996L369.793 51.2169V49.4035ZM380.945 50.6861L372.094 49.6689V51.5265L380.945 52.4995V50.6861ZM391.388 51.9245L383.423 50.9957V52.7649L391.388 53.6937V51.9245ZM402.363 53.2072L393.911 52.1899V53.9591L402.363 54.9321V53.2072ZM413.293 54.4898L404.885 53.4726V53.0745L413.293 54.0475V54.4898ZM424.18 55.7724L415.772 54.7552V56.4359L424.18 57.4089V55.7724ZM434.668 56.9666L426.702 56.0378V57.6743L434.668 58.6031V56.9666ZM444.979 58.205L437.19 57.2762V58.8685L444.979 59.753V58.205ZM455.422 59.3992L447.501 58.4704V60.0184L455.422 60.9472V59.3992ZM465.158 60.5492L458.564 57.7185V59.2223L465.822 60.0626L465.158 60.5492ZM475.159 61.6991L467.68 60.8588V62.3183L475.159 63.1587V61.6991ZM485.249 62.8933L477.637 62.0087V63.4683L485.249 64.3086V62.8933ZM495.338 64.0875L487.771 63.2029V64.6182L495.338 65.4585V64.0875ZM504.189 65.1489L498.392 62.3625V63.7336L504.941 64.4855L504.189 65.1489ZM514.544 66.3431L506.711 65.4585V66.7854L514.544 67.67V66.3431ZM523.881 67.4488L517.067 66.6527V67.9354L523.881 68.7315V67.4488ZM532.732 68.5103L526.183 67.7584V68.9968L532.688 69.7487L532.732 68.5103ZM542.512 69.6603L535.21 68.8199V70.0141L542.512 70.8545V69.6603ZM551.805 70.7218L545.034 69.9257V71.1198L551.849 71.9159L551.805 70.7218ZM560.656 71.7833L554.328 71.0314V72.1813L560.656 72.889V71.7833ZM569.064 72.7563L563.178 72.0486V73.1986L569.064 73.862V72.7563ZM577.914 73.7736L571.763 73.0659V74.1274L577.914 74.835V73.7736ZM586.19 75.7638V74.7466L580.481 74.0832V75.1004L586.19 75.7638ZM587.119 98.3205L586.898 76.2946L581.145 75.6754L581.809 95.7552L587.119 98.3205ZM194.33 29.6333V27.1122H192.825V29.589L194.33 29.6333ZM194.33 57.0551V32.1543L192.781 32.3754L192.516 57.4974L194.33 57.0551ZM194.33 104.822V81.9559H192.427V104.822H194.33ZM194.33 127.91V107.343H192.294V127.91H194.33ZM194.33 153.518V130.431H192.117V153.518H194.33ZM194.33 177.048V156.039H191.896V177.048H194.33ZM194.33 226.142V204.602H191.586V226.142H194.33ZM194.95 0.574974V0H196.144H197.428V0.35383L592.12 51.5265H593.182V52.5438L603.227 274.218V275.545H593.978L595.306 319.42V320.658H594.067L437.279 323.356V324.816H432.057L639.072 320.393V322.914L188.931 344.984L167.867 345.869L105.913 347.638L73.0771 343.657H71.9265V342.331L72.1478 334.104V332.91H73.3426L187.073 330.389L368.996 324.462L235.397 326.762H92.4599L34.7098 323.578H33.4707V322.383L34.5328 282.577L25.6822 283.329H24.2661V281.914L29.311 144.363V143.92L29.5765 143.611L29.9305 143.213V124.99V123L30.5943 109.245L92.1944 17.6915V15.9223H93.2564H93.5662L94.053 15.2147V15.8339L194.95 0.574974ZM194.95 79.6117V59.5761H193.224V79.3906L194.95 79.6117ZM193.888 202.125V179.524H191.321L191.1 202.081L193.888 202.125ZM193.888 252.59V228.663H191.011V252.59H193.888ZM193.888 273.378V255.111L88.7869 258.119L88.3886 275.81L193.888 273.378ZM196.897 2.87487V24.5912L588.225 70.3679H589.287V71.4294L590.349 97.5244V98.9839H588.889L416.922 82.3097L417.763 123.31V124.681H416.391L350.72 119.418L353.552 255.598V256.881H352.357L196.498 254.89L196.233 273.157H233.848L600.705 272.714L590.261 53.6937L196.897 2.87487ZM58.6507 329.106L39.1794 327.647L50.6851 329.239L58.6507 329.106Z" fill="white"/>
</svg>
