<svg width="139" height="29" viewBox="0 0 139 29" fill="none" xmlns="http://www.w3.org/2000/svg">
<path d="M124.507 13.62V1.26C124.507 1.13578 124.531 1.01276 124.579 0.898229C124.626 0.783703 124.696 0.680016 124.784 0.593333C124.869 0.503102 124.971 0.431633 125.084 0.383438C125.198 0.335244 125.32 0.311373 125.443 0.313334H127.287C127.41 0.310125 127.533 0.333428 127.646 0.381699C127.76 0.429969 127.862 0.502106 127.946 0.593333C128.033 0.680346 128.102 0.784245 128.148 0.898799C128.195 1.01335 128.218 1.1362 128.216 1.26V11.6333C128.216 11.6581 128.226 11.6818 128.243 11.6993C128.26 11.7168 128.284 11.7267 128.308 11.7267H136.76C136.883 11.7235 137.006 11.7468 137.119 11.795C137.233 11.8433 137.335 11.9154 137.419 12.0067C137.506 12.0937 137.575 12.1976 137.621 12.3121C137.668 12.4267 137.691 12.5495 137.689 12.6733V13.6067C137.689 13.7292 137.665 13.8506 137.619 13.9638C137.573 14.0771 137.505 14.18 137.419 14.2666C137.333 14.3533 137.232 14.4221 137.12 14.469C137.008 14.5159 136.888 14.54 136.767 14.54H125.403C125.281 14.5429 125.16 14.5208 125.047 14.4749C124.933 14.4291 124.831 14.3605 124.744 14.2733C124.652 14.1901 124.579 14.087 124.531 13.9717C124.484 13.8563 124.462 13.7316 124.468 13.6067M109.698 8.27334H115.686C115.711 8.27334 115.734 8.2635 115.751 8.246C115.769 8.22849 115.778 8.20476 115.778 8.18V3.2C115.778 3.17525 115.769 3.15151 115.751 3.13401C115.734 3.1165 115.711 3.10667 115.686 3.10667H112.992C112.403 3.09683 111.828 3.28695 111.358 3.64667C110.889 4.01058 110.557 4.52565 110.416 5.10667L109.612 8.2C109.602 8.22566 109.602 8.25435 109.612 8.28C109.625 8.29031 109.641 8.29698 109.657 8.29932C109.673 8.30166 109.689 8.2996 109.705 8.29333L109.698 8.27334ZM104.375 13.6067L106.846 4.2C107.509 1.62667 109.678 0.337778 113.354 0.333333H118.624C118.74 0.330672 118.854 0.354481 118.959 0.402974C119.064 0.451468 119.157 0.523389 119.23 0.613337C119.393 0.795811 119.48 1.03441 119.474 1.28V13.68C119.48 13.805 119.458 13.9297 119.41 14.045C119.362 14.1603 119.29 14.2634 119.197 14.3467C119.111 14.4335 119.008 14.5019 118.895 14.5477C118.782 14.5935 118.661 14.6158 118.539 14.6133H116.694C116.572 14.6178 116.45 14.5964 116.337 14.5505C116.223 14.5046 116.121 14.4351 116.035 14.3467C115.949 14.2596 115.881 14.1555 115.836 14.0409C115.79 13.9262 115.769 13.8034 115.772 13.68V11.2667C115.772 11.2547 115.769 11.2429 115.765 11.2319C115.76 11.2209 115.753 11.211 115.745 11.2029C115.736 11.1948 115.726 11.1885 115.714 11.1846C115.703 11.1806 115.691 11.1791 115.68 11.18H108.894C108.875 11.1795 108.855 11.1858 108.84 11.1979C108.824 11.2101 108.813 11.2273 108.809 11.2467L108.15 13.6867C108.084 13.954 107.928 14.1897 107.709 14.3533C107.5 14.52 107.243 14.6115 106.977 14.6133H105.073C104.962 14.6221 104.851 14.6022 104.75 14.5556C104.648 14.509 104.56 14.4371 104.494 14.3467C104.405 14.2303 104.356 14.0873 104.355 13.94C104.355 13.8667 104.355 13.7933 104.355 13.7067L104.375 13.6067ZM85.9297 13.6067V1.24C85.9281 1.1162 85.9512 0.993353 85.9976 0.878799C86.044 0.764246 86.1128 0.660347 86.1998 0.573334C86.2837 0.482107 86.3859 0.40997 86.4994 0.361699C86.613 0.313428 86.7354 0.290126 86.8586 0.293335H89.7703C90.0351 0.30666 90.2888 0.404701 90.4949 0.573334C90.7558 0.749429 90.9797 0.975998 91.1537 1.24L96.9509 10.2C96.9663 10.2109 96.9847 10.2167 97.0036 10.2167C97.0224 10.2167 97.0408 10.2109 97.0563 10.2C97.0749 10.1944 97.0912 10.183 97.1031 10.1675C97.1149 10.1519 97.1216 10.133 97.1222 10.1133V1.22C97.1184 1.0971 97.1393 0.974704 97.1834 0.860148C97.2276 0.745592 97.2941 0.641233 97.3791 0.553335C97.4632 0.463116 97.5656 0.392525 97.6794 0.346471C97.7932 0.300418 97.9155 0.280008 98.0378 0.286667H99.6584C99.7754 0.284377 99.8915 0.306928 99.9993 0.352859C100.107 0.398791 100.204 0.467085 100.284 0.553335C100.368 0.641891 100.434 0.746364 100.478 0.860763C100.522 0.975163 100.544 1.09724 100.541 1.22V13.6C100.545 13.7235 100.524 13.8466 100.479 13.9613C100.433 14.0761 100.365 14.18 100.278 14.2667C100.193 14.3567 100.091 14.4276 99.9772 14.4747C99.8636 14.5218 99.7415 14.5441 99.6189 14.54H96.4041C96.1259 14.5295 95.8572 14.4342 95.6333 14.2667C95.3644 14.1007 95.1385 13.8722 94.9746 13.6L89.7967 5.35334C89.7861 5.33538 89.7699 5.32153 89.7506 5.31403C89.7313 5.30652 89.7101 5.30578 89.6903 5.31193C89.6706 5.31808 89.6534 5.33076 89.6417 5.34794C89.6299 5.36511 89.6242 5.3858 89.6254 5.40667V13.6C89.6286 13.7246 89.6055 13.8485 89.5578 13.9634C89.5101 14.0784 89.4389 14.1817 89.3487 14.2667C89.1725 14.4409 88.9363 14.5389 88.6899 14.54H86.9047C86.6586 14.5375 86.4229 14.4397 86.2459 14.2667C86.1515 14.1841 86.076 14.0817 86.0248 13.9665C85.9736 13.8514 85.9479 13.7263 85.9495 13.6L85.9297 13.6067ZM70.6463 3.88C69.9138 4.90752 69.5617 6.16296 69.6515 7.42667C69.5617 8.69038 69.9138 9.94582 70.6463 10.9733C71.3182 11.7644 72.3876 12.16 73.8545 12.16C75.3213 12.16 76.3907 11.7644 77.0627 10.9733C77.7928 9.94493 78.1426 8.68957 78.0508 7.42667C78.1426 6.16376 77.7928 4.9084 77.0627 3.88C76.4039 3.08 75.3367 2.68667 73.8545 2.68667C72.3723 2.68667 71.338 3.07334 70.666 3.87334L70.6463 3.88ZM67.9651 13.0667C66.6476 11.88 65.9888 9.99778 65.9888 7.42C65.9888 4.84223 66.6476 2.96223 67.9651 1.78C69.309 0.593337 71.2721 0 73.8545 0C76.4369 0 78.4 0.593337 79.7439 1.78C81.0614 2.96667 81.7202 4.84667 81.7202 7.42C81.7202 9.99334 81.0614 11.8756 79.7439 13.0667C78.4263 14.2533 76.4632 14.8467 73.8545 14.8467C71.2458 14.8467 69.2892 14.2511 67.9849 13.06L67.9651 13.0667ZM47.1678 7.42667C47.1678 4.96 47.7739 3.14445 48.986 1.98C50.1981 0.815556 52.0185 0.222224 54.4472 0.200002H56.6541C58.0216 0.189481 59.3659 0.558394 60.5408 1.26667C61.7002 1.96667 62.2799 2.83333 62.2799 3.88C62.2938 4.03692 62.2686 4.19487 62.2064 4.33931C62.1442 4.48376 62.0472 4.61009 61.9242 4.70667C61.7353 4.85624 61.505 4.94246 61.2654 4.95333H60.106C59.8216 4.94702 59.5452 4.85653 59.3111 4.69303C59.0769 4.52953 58.8952 4.30018 58.7885 4.03334C58.4393 3.36667 57.6093 3.02667 56.2983 3.02667H54.546C53.1099 3.02667 52.1415 3.33333 51.6277 3.96C51.1138 4.58667 50.8701 5.73333 50.8701 7.42667C50.8701 9.12 51.0941 10.2133 51.5288 10.8533C51.9636 11.4933 52.8003 11.8067 53.9795 11.8067H55.9558C56.7574 11.8824 57.5597 11.6699 58.2219 11.2067C58.4374 10.9982 58.6074 10.7463 58.7209 10.4673C58.8343 10.1883 58.8888 9.88828 58.8807 9.58667C58.885 9.57611 58.8873 9.56478 58.8873 9.55333C58.8873 9.54189 58.885 9.53057 58.8807 9.52C58.8704 9.51521 58.8591 9.51272 58.8478 9.51272C58.8364 9.51272 58.8251 9.51521 58.8148 9.52H56.7529C56.6299 9.52197 56.5079 9.49809 56.3945 9.44989C56.2811 9.4017 56.1788 9.33023 56.0941 9.24C56.0077 9.15253 55.9393 9.04856 55.8929 8.93411C55.8466 8.81966 55.8231 8.69702 55.824 8.57333V7.75334C55.822 7.62949 55.8449 7.50651 55.8913 7.39191C55.9378 7.2773 56.0068 7.17345 56.0941 7.08667C56.1788 6.99644 56.2811 6.92497 56.3945 6.87677C56.5079 6.82858 56.6299 6.80471 56.7529 6.80667H61.6739C61.9162 6.81017 62.1474 6.91005 62.3175 7.08471C62.4876 7.25936 62.583 7.49476 62.583 7.74V8.86667C62.6321 9.65832 62.5103 10.4513 62.2259 11.1904C61.9414 11.9296 61.5013 12.5971 60.936 13.1467C59.8359 14.1333 58.2219 14.6333 56.0941 14.6333H53.907C51.7418 14.6333 50.0774 14.0422 48.9135 12.86C47.7497 11.6778 47.1678 9.86667 47.1678 7.42667ZM33.2019 8.29333H39.1967C39.2207 8.29177 39.2432 8.28143 39.2602 8.26426C39.2772 8.24708 39.2874 8.22424 39.2889 8.2V3.2C39.2889 3.17525 39.2792 3.15151 39.2619 3.13401C39.2446 3.1165 39.2212 3.10667 39.1967 3.10667H36.5023C35.9112 3.09247 35.3329 3.28299 34.8633 3.64669C34.3937 4.01039 34.0609 4.52547 33.92 5.10667L33.1097 8.2C33.1033 8.21236 33.1 8.22607 33.1 8.24C33.1 8.25393 33.1033 8.26765 33.1097 8.28C33.1211 8.29284 33.1365 8.30122 33.1534 8.30365C33.1703 8.30609 33.1875 8.30244 33.2019 8.29333ZM27.8791 13.6267L30.3429 4.2C31.0104 1.62667 33.18 0.337778 36.8515 0.333333H42.1216C42.2359 0.331679 42.3491 0.355977 42.4528 0.404434C42.5565 0.452891 42.6482 0.524279 42.7211 0.613337C42.8861 0.794324 42.9737 1.03394 42.9649 1.28V13.68C42.9707 13.805 42.9489 13.9297 42.901 14.045C42.8532 14.1603 42.7804 14.2634 42.6882 14.3467C42.6019 14.4339 42.499 14.5024 42.3858 14.5483C42.2726 14.5941 42.1513 14.6162 42.0294 14.6133H40.1849C40.0628 14.6178 39.9411 14.5964 39.8276 14.5505C39.7142 14.5046 39.6115 14.4351 39.5261 14.3467C39.4405 14.2592 39.3735 14.155 39.3293 14.0403C39.2852 13.9256 39.2647 13.803 39.2692 13.68V11.2667C39.2675 11.2431 39.2571 11.221 39.2399 11.2049C39.2228 11.1889 39.2003 11.1799 39.1769 11.18H32.4114C32.3909 11.1791 32.3707 11.1852 32.354 11.1973C32.3373 11.2094 32.325 11.2268 32.3192 11.2467L31.6604 13.6867C31.5877 13.9472 31.4348 14.1775 31.2239 14.3442C31.0131 14.5108 30.7552 14.6051 30.4878 14.6133H28.5708C28.4598 14.6221 28.3484 14.6022 28.247 14.5556C28.1456 14.509 28.0576 14.4371 27.9911 14.3467C27.9018 14.2303 27.8532 14.0873 27.8527 13.94C27.8527 13.8667 27.8527 13.7933 27.8527 13.7067L27.8791 13.6267ZM20.356 13.6267V1.24C20.3594 0.990628 20.4593 0.752553 20.6341 0.576828C20.809 0.401102 21.045 0.301723 21.2914 0.300003H23.1162C23.2391 0.298444 23.361 0.322496 23.4743 0.370666C23.5877 0.418837 23.69 0.490093 23.775 0.580002C23.862 0.667015 23.9308 0.770909 23.9772 0.885462C24.0236 1.00002 24.0467 1.12287 24.0451 1.24667V13.6C24.047 13.7251 24.0227 13.8491 23.9739 13.964C23.9251 14.0789 23.8528 14.182 23.7618 14.2667C23.6751 14.3538 23.5723 14.4228 23.4593 14.4697C23.3463 14.5166 23.2252 14.5405 23.103 14.54H21.2914C21.1695 14.5425 21.0484 14.5202 20.9352 14.4744C20.8221 14.4286 20.7192 14.3602 20.6326 14.2733C20.5421 14.1915 20.4704 14.0906 20.4226 13.9777C20.3748 13.8649 20.3521 13.7427 20.356 13.62V13.6267ZM3.32681 0.293335H8.05017C10.8829 0.293335 12.9514 0.866669 14.2426 2.01334C15.5338 3.16 16.1794 4.96 16.1794 7.41333C16.2574 8.9801 15.8671 10.5343 15.0595 11.8733C15.0428 11.8941 15.0195 11.9083 14.9936 11.9133C14.9703 11.9226 14.9444 11.9226 14.9211 11.9133L12.319 9.34C12.3115 9.32683 12.3075 9.31188 12.3075 9.29667C12.3075 9.28145 12.3115 9.26651 12.319 9.25334C12.4561 8.65226 12.5225 8.03687 12.5166 7.42C12.5166 5.84667 12.1982 4.73556 11.5614 4.08667C10.9246 3.43778 9.72783 3.11111 7.97112 3.10667H6.0014C5.99096 3.11107 5.97977 3.11334 5.96846 3.11334C5.95716 3.11334 5.94596 3.11107 5.93553 3.10667L3.29387 0.460002C3.28449 0.44505 3.27952 0.42771 3.27952 0.410004C3.27952 0.392297 3.28449 0.374952 3.29387 0.360001C3.29751 0.336694 3.30917 0.315444 3.32681 0.300003V0.293335ZM1.63377 13.6267V2.29333C1.63089 2.27405 1.63453 2.25434 1.6441 2.2374C1.65366 2.22046 1.66859 2.20729 1.68647 2.2C1.70125 2.19052 1.71838 2.18548 1.73588 2.18548C1.75338 2.18548 1.77051 2.19052 1.78529 2.2L5.30311 5.64667C5.30785 5.65713 5.3103 5.6685 5.3103 5.68C5.3103 5.69151 5.30785 5.70287 5.30311 5.71333V11.6C5.30311 11.6123 5.30549 11.6244 5.31013 11.6357C5.31476 11.647 5.32156 11.6573 5.33012 11.666C5.33869 11.6747 5.34885 11.6815 5.36004 11.6862C5.37123 11.6909 5.38322 11.6933 5.39534 11.6933H7.91183C8.91175 11.744 9.91042 11.571 10.8368 11.1867C10.8513 11.1736 10.87 11.1663 10.8895 11.1663C10.9089 11.1663 10.9277 11.1736 10.9422 11.1867L13.1754 13.4067C13.183 13.4186 13.1871 13.4325 13.1871 13.4467C13.1871 13.4609 13.183 13.4748 13.1754 13.4867C13.1743 13.5009 13.1694 13.5147 13.1613 13.5264C13.1532 13.5381 13.1421 13.5474 13.1293 13.5533C11.5259 14.2772 9.77778 14.6128 8.02382 14.5333H2.56263C2.44077 14.5358 2.31965 14.5135 2.20648 14.4677C2.09331 14.4219 1.9904 14.3535 1.90387 14.2667C1.81643 14.1842 1.74719 14.0839 1.70064 13.9725C1.6541 13.8611 1.63132 13.7409 1.63377 13.62V13.6267Z" fill="#160F07"/>
<path opacity="0.56" fill-rule="evenodd" clip-rule="evenodd" d="M66.4083 27.8401C66.4052 27.8533 66.4052 27.8669 66.4083 27.8801H67.4425C67.4425 27.8801 67.4426 27.8801 67.4821 27.8801V24.9468C67.4818 24.9147 67.4936 24.8837 67.515 24.8601C67.6654 24.6426 67.8615 24.4617 68.0894 24.3303C68.3172 24.1988 68.571 24.1202 68.8325 24.1001H69.1949H69.5177H69.7021V23.4334C69.6959 23.4305 69.6892 23.4289 69.6824 23.4289C69.6755 23.4289 69.6688 23.4305 69.6626 23.4334C69.3142 23.4221 68.9666 23.4718 68.6349 23.5801C68.3417 23.6962 68.0648 23.8509 67.8115 24.0401L67.6665 24.1468C67.6447 24.1603 67.6197 24.1675 67.5941 24.1675C67.5685 24.1675 67.5434 24.1603 67.5216 24.1468C67.4992 24.1362 67.4803 24.1192 67.4674 24.0979C67.4545 24.0765 67.4481 24.0518 67.4491 24.0268V23.5668C67.4522 23.5536 67.4522 23.5399 67.4491 23.5268H66.4083C66.4083 23.5268 66.4083 23.5268 66.4083 23.5668V27.8401ZM61.013 25.1734C61.0004 24.9971 61.0239 24.8201 61.0819 24.6534C61.1399 24.4866 61.2313 24.3338 61.3503 24.2044C61.4693 24.075 61.6133 23.9718 61.7735 23.9012C61.9336 23.8306 62.1064 23.7942 62.2811 23.7942C62.4558 23.7942 62.6286 23.8306 62.7887 23.9012C62.9489 23.9718 63.0929 24.075 63.2119 24.2044C63.3309 24.3338 63.4222 24.4866 63.4803 24.6534C63.5383 24.8201 63.5618 24.9971 63.5492 25.1734V25.2734C63.5522 25.2916 63.5507 25.3101 63.5449 25.3275C63.5392 25.345 63.5294 25.3607 63.5163 25.3734C63.4889 25.3979 63.454 25.4121 63.4175 25.4134H61.1447C61.1264 25.4141 61.1082 25.4109 61.0911 25.404C61.0741 25.3971 61.0587 25.3867 61.0459 25.3734C61.0208 25.3437 61.0068 25.3059 61.0064 25.2668L61.013 25.1734ZM60.5189 27.4134C61.0116 27.8304 61.6434 28.0403 62.2844 28.0001C62.8641 28.0001 64.096 27.9534 64.4122 27.3334C64.4729 27.2164 64.5024 27.0855 64.4978 26.9534C64.5034 26.9384 64.5034 26.9218 64.4978 26.9068H63.7864C63.7213 26.9028 63.6563 26.9147 63.5967 26.9413C63.5371 26.968 63.4847 27.0087 63.4438 27.0601C63.3072 27.1969 63.1426 27.3018 62.9617 27.3675C62.7807 27.4331 62.5878 27.4579 62.3964 27.4401C62.0452 27.4628 61.6975 27.3589 61.4148 27.1468C61.2942 27.029 61.1977 26.8883 61.131 26.7327C61.0643 26.5771 61.0287 26.4097 61.0261 26.2401V26.1401C61.0253 26.1007 61.0395 26.0625 61.0657 26.0334C61.0773 26.0182 61.0923 26.006 61.1095 25.9979C61.1267 25.9898 61.1455 25.986 61.1645 25.9868H64.6296C64.6325 25.9805 64.6341 25.9737 64.6341 25.9668C64.6341 25.9598 64.6325 25.953 64.6296 25.9468V25.6801C64.6498 25.3626 64.6053 25.0443 64.4987 24.745C64.3922 24.4456 64.226 24.1717 64.0104 23.9401C63.5056 23.5487 62.8874 23.3366 62.2515 23.3366C61.6155 23.3366 60.9973 23.5487 60.4925 23.9401C60.0902 24.4298 59.8699 25.0466 59.8699 25.6834C59.8699 26.3203 60.0902 26.9371 60.4925 27.4268L60.5189 27.4134ZM55.6901 26.2001C55.6901 27.3801 56.1842 28.0001 57.3832 28.0001C57.7671 28.0077 58.1509 27.9787 58.5294 27.9134C58.5531 27.92 58.5782 27.92 58.6019 27.9134V27.4334C58.587 27.4278 58.5706 27.4278 58.5558 27.4334H58.3911C58.312 27.4334 58.2132 27.4334 58.1342 27.4334C58.0158 27.4434 57.8968 27.4434 57.7784 27.4334C57.6376 27.4377 57.4976 27.41 57.3688 27.3523C57.24 27.2946 57.1256 27.2085 57.034 27.1001C56.8465 26.8521 56.7509 26.5454 56.7639 26.2334V24.4601C56.7639 24.423 56.7785 24.3874 56.8044 24.3611C56.8304 24.3348 56.8656 24.3201 56.9023 24.3201H58.2198C58.2198 24.3201 58.2198 24.3201 58.2527 24.3201V23.7801C58.2558 23.7669 58.2558 23.7532 58.2527 23.7401H56.8891C56.8709 23.7401 56.8529 23.7365 56.8361 23.7294C56.8194 23.7224 56.8041 23.7121 56.7913 23.6991C56.7784 23.6861 56.7682 23.6707 56.7613 23.6537C56.7543 23.6367 56.7507 23.6185 56.7507 23.6001V22.0001C56.7537 21.9938 56.7552 21.987 56.7552 21.9801C56.7552 21.9732 56.7537 21.9663 56.7507 21.9601H55.7165C55.7113 21.9577 55.7057 21.9565 55.7 21.9565C55.6943 21.9565 55.6887 21.9577 55.6835 21.9601L55.6901 26.2001ZM48.9839 27.8601C48.9809 27.8664 48.9794 27.8732 48.9794 27.8801C48.9794 27.887 48.9809 27.8938 48.9839 27.9001H50.0181C50.0243 27.9031 50.0311 27.9046 50.0379 27.9046C50.0447 27.9046 50.0515 27.9031 50.0577 27.9001V24.8334C50.057 24.8149 50.0602 24.7964 50.067 24.7792C50.0738 24.762 50.0841 24.7464 50.0972 24.7334C50.4416 24.3273 50.9279 24.0717 51.4543 24.0201C52.2448 24.0201 52.5346 24.6001 52.5346 25.3534V27.9468C52.531 27.9598 52.531 27.9737 52.5346 27.9868H53.5623C53.5695 27.9903 53.5774 27.9921 53.5854 27.9921C53.5934 27.9921 53.6012 27.9903 53.6084 27.9868V25.3934C53.6302 25.1283 53.5994 24.8614 53.518 24.6084C53.4365 24.3554 53.306 24.1214 53.1341 23.9201C52.7726 23.5947 52.2999 23.4249 51.8166 23.4468C51.2878 23.4706 50.7852 23.6859 50.4002 24.0534L50.2487 24.1801C50.2267 24.193 50.2017 24.1997 50.1762 24.1997C50.1508 24.1997 50.1258 24.193 50.1038 24.1801C50.0801 24.1687 50.0601 24.1508 50.0461 24.1284C50.0321 24.1059 50.0247 24.08 50.0247 24.0534V23.5668C50.0277 23.5605 50.0292 23.5537 50.0292 23.5468C50.0292 23.5398 50.0277 23.533 50.0247 23.5268H49.03C49.03 23.5268 49.03 23.5268 49.03 23.5668L48.9839 27.8601ZM43.5951 25.1934C43.5823 25.0211 43.6064 24.8481 43.6658 24.6861C43.7252 24.5241 43.8184 24.377 43.9391 24.2549C44.0598 24.1327 44.2052 24.0383 44.3653 23.9783C44.5253 23.9182 44.6963 23.8938 44.8666 23.9068C45.0365 23.8923 45.2076 23.9158 45.3676 23.9756C45.5276 24.0354 45.6727 24.1299 45.7927 24.2526C45.9127 24.3753 46.0046 24.5231 46.062 24.6857C46.1194 24.8483 46.1408 25.0216 46.1248 25.1934V25.2934C46.1246 25.3306 46.1105 25.3664 46.0853 25.3934C46.0725 25.4067 46.0571 25.4171 46.0401 25.424C46.023 25.4309 46.0048 25.4341 45.9865 25.4334H43.7203C43.702 25.4341 43.6838 25.4309 43.6667 25.424C43.6497 25.4171 43.6343 25.4067 43.6215 25.3934C43.5964 25.3637 43.5824 25.3259 43.582 25.2868L43.5951 25.1934ZM43.1011 27.4334C43.5934 27.851 44.2255 28.061 44.8666 28.0201C45.4463 28.0201 46.6782 27.9734 46.9944 27.3534C47.0522 27.2354 47.0816 27.1052 47.08 26.9734C47.0856 26.9584 47.0856 26.9418 47.08 26.9268H46.3817C46.3167 26.9228 46.2517 26.9347 46.1921 26.9613C46.1325 26.988 46.0801 27.0287 46.0392 27.0801C45.9025 27.2169 45.738 27.3218 45.557 27.3875C45.3761 27.4531 45.1832 27.4779 44.9917 27.4601C44.6405 27.4834 44.2926 27.3794 44.0102 27.1668C43.7682 26.9272 43.6267 26.6025 43.6149 26.2601V26.1601C43.6128 26.1404 43.6153 26.1205 43.6222 26.102C43.629 26.0835 43.6401 26.0669 43.6544 26.0534C43.666 26.0382 43.681 26.026 43.6982 26.0179C43.7154 26.0098 43.7343 26.006 43.7533 26.0068H47.2184C47.2235 26.0092 47.2292 26.0104 47.2348 26.0104C47.2405 26.0104 47.2461 26.0092 47.2513 26.0068C47.2542 26.0005 47.2558 25.9937 47.2558 25.9868C47.2558 25.9798 47.2542 25.973 47.2513 25.9668V25.7001C47.2715 25.3826 47.227 25.0643 47.1204 24.765C47.0139 24.4656 46.8477 24.1917 46.6321 23.9601C46.1273 23.5687 45.5091 23.3566 44.8732 23.3566C44.2372 23.3566 43.619 23.5687 43.1143 23.9601C42.8958 24.1927 42.7274 24.4686 42.6197 24.7704C42.5119 25.0721 42.4673 25.3933 42.4884 25.7134C42.4732 26.0208 42.5197 26.3281 42.6249 26.6168C42.7302 26.9056 42.8922 27.1697 43.1011 27.3934V27.4334ZM36.3421 25.6801C36.3193 25.9999 36.3625 26.3209 36.4692 26.6228C36.5758 26.9247 36.7434 27.2008 36.9614 27.4334C37.4856 27.8536 38.145 28.0626 38.8125 28.0201C39.4158 28.051 40.0169 27.9248 40.5582 27.6534C40.7323 27.5594 40.8766 27.4175 40.9745 27.2442C41.0724 27.0708 41.1199 26.8729 41.1116 26.6734C41.1054 26.6705 41.0987 26.6689 41.0918 26.6689C41.085 26.6689 41.0782 26.6705 41.0721 26.6734H40.4133C40.3437 26.679 40.2767 26.7028 40.2189 26.7426C40.1611 26.7823 40.1146 26.8366 40.0839 26.9001C39.9495 27.0785 39.7728 27.2197 39.5701 27.3106C39.3674 27.4015 39.1454 27.4391 38.9245 27.4201C38.7156 27.4386 38.5053 27.4092 38.3091 27.3342C38.113 27.2592 37.936 27.1404 37.7914 26.9868C37.5479 26.6098 37.4322 26.1628 37.462 25.7134C37.4316 25.2658 37.5423 24.82 37.7782 24.4401C37.9157 24.2863 38.0867 24.167 38.2777 24.0918C38.4686 24.0165 38.6743 23.9874 38.8784 24.0068C39.1009 23.9873 39.3247 24.0255 39.5286 24.1176C39.7326 24.2097 39.9101 24.3528 40.0444 24.5334C40.0743 24.5956 40.1199 24.6486 40.1766 24.6873C40.2333 24.7259 40.299 24.7487 40.3672 24.7534H41.0918C41.0994 24.5541 41.0516 24.3565 40.9537 24.1833C40.8559 24.0101 40.712 23.8681 40.5385 23.7734C39.9958 23.506 39.3957 23.3799 38.7927 23.4068C38.1385 23.3655 37.4932 23.5776 36.9877 24.0001C36.7787 24.217 36.614 24.4735 36.5032 24.7549C36.3925 25.0364 36.3377 25.3372 36.3421 25.6401V25.6801ZM28.0219 25.1934C28.0093 25.0171 28.0328 24.8401 28.0908 24.6734C28.1489 24.5066 28.2402 24.3538 28.3592 24.2244C28.4782 24.095 28.6222 23.9918 28.7824 23.9212C28.9425 23.8506 29.1153 23.8142 29.29 23.8142C29.4647 23.8142 29.6375 23.8506 29.7976 23.9212C29.9578 23.9918 30.1018 24.095 30.2208 24.2244C30.3398 24.3538 30.4312 24.5066 30.4892 24.6734C30.5472 24.8401 30.5707 25.0171 30.5581 25.1934V25.2934C30.5657 25.309 30.5696 25.3261 30.5696 25.3434C30.5696 25.3608 30.5657 25.3779 30.5581 25.3934C30.5453 25.4067 30.5299 25.4171 30.5129 25.424C30.4959 25.4309 30.4776 25.4341 30.4593 25.4334H28.147C28.1287 25.4341 28.1105 25.4309 28.0935 25.424C28.0765 25.4171 28.061 25.4067 28.0482 25.3934C28.0406 25.3767 28.0366 25.3585 28.0366 25.3401C28.0366 25.3217 28.0406 25.3035 28.0482 25.2868L28.0219 25.1934ZM27.5278 27.4334C28.0205 27.8504 28.6523 28.0603 29.2933 28.0201C29.873 28.0201 31.1049 27.9734 31.4277 27.3534C31.4835 27.2349 31.5106 27.1047 31.5068 26.9734C31.5123 26.9584 31.5123 26.9418 31.5068 26.9268H30.7821C30.7171 26.9228 30.652 26.9347 30.5924 26.9613C30.5329 26.988 30.4804 27.0287 30.4396 27.0801C30.3029 27.2169 30.1384 27.3218 29.9574 27.3875C29.7765 27.4531 29.5835 27.4779 29.3921 27.4601C29.041 27.4828 28.6932 27.3789 28.4106 27.1668C28.171 26.9261 28.0319 26.6015 28.0219 26.2601V26.1601C28.021 26.1207 28.0352 26.0825 28.0614 26.0534C28.073 26.0382 28.088 26.026 28.1052 26.0179C28.1224 26.0098 28.1413 26.006 28.1602 26.0068H31.6253C31.6299 25.9938 31.6299 25.9797 31.6253 25.9668V25.7001C31.644 25.3827 31.5987 25.0649 31.4922 24.7658C31.3858 24.4667 31.2204 24.1926 31.0061 23.9601C30.4998 23.5692 29.8807 23.3575 29.2439 23.3575C28.6071 23.3575 27.988 23.5692 27.4817 23.9601C27.0793 24.4498 26.859 25.0666 26.859 25.7034C26.859 26.3403 27.0793 26.9571 27.4817 27.4468L27.5278 27.4334ZM20.7688 25.6401C20.7499 25.9629 20.7988 26.286 20.9124 26.5883C21.026 26.8905 21.2016 27.1649 21.4276 27.3934C21.951 27.8154 22.6111 28.0245 23.2788 27.9801C23.8799 28.0102 24.4786 27.8839 25.0179 27.6134C25.193 27.5207 25.3382 27.3791 25.4363 27.2054C25.5344 27.0317 25.5812 26.8332 25.5713 26.6334C25.5564 26.6278 25.54 26.6278 25.5251 26.6334H24.8664C24.7966 26.6383 24.7293 26.6619 24.6714 26.7017C24.6135 26.7415 24.5672 26.7962 24.537 26.8601C24.402 27.0395 24.2242 27.1813 24.0202 27.2722C23.8163 27.3632 23.5929 27.4003 23.371 27.3801C23.1621 27.3986 22.9518 27.3692 22.7556 27.2942C22.5594 27.2192 22.3825 27.1004 22.2379 26.9468C21.9962 26.5692 21.8829 26.1221 21.9151 25.6734C21.8847 25.2258 21.9954 24.78 22.2313 24.4001C22.3681 24.2472 22.538 24.1285 22.7277 24.0533C22.9175 23.9781 23.1219 23.9485 23.3249 23.9668C23.5474 23.9473 23.7712 23.9855 23.9751 24.0776C24.1791 24.1697 24.3566 24.3128 24.4909 24.4934C24.5224 24.5557 24.5694 24.6086 24.6271 24.6472C24.6848 24.6857 24.7513 24.7085 24.8203 24.7134H25.512C25.5211 24.5138 25.4739 24.3156 25.376 24.1421C25.278 23.9686 25.1332 23.8268 24.9586 23.7334C24.416 23.466 23.8159 23.3399 23.2129 23.3668C22.5586 23.3255 21.9133 23.5376 21.4078 23.9601C21.1952 24.1823 21.029 24.4455 20.9192 24.7342C20.8094 25.0229 20.7583 25.331 20.7688 25.6401ZM17.9164 27.8468C17.914 27.852 17.9128 27.8577 17.9128 27.8634C17.9128 27.8692 17.914 27.8749 17.9164 27.8801H18.9506V23.6068H17.9296L17.9164 27.8468ZM17.9164 22.2334C17.9142 22.2746 17.92 22.3158 17.9336 22.3547C17.9471 22.3936 17.9682 22.4294 17.9954 22.4601C18.0234 22.4868 18.0567 22.5072 18.093 22.5198C18.1294 22.5324 18.168 22.5371 18.2062 22.5334H18.7596C18.7979 22.5371 18.8365 22.5324 18.8728 22.5198C18.9092 22.5072 18.9425 22.4868 18.9704 22.4601C19.0231 22.3971 19.0492 22.3157 19.0429 22.2334V22.0734C19.0492 21.9912 19.0231 21.9097 18.9704 21.8468C18.9425 21.8201 18.9092 21.7997 18.8728 21.7871C18.8365 21.7744 18.7979 21.7698 18.7596 21.7734H18.2062C18.168 21.7698 18.1294 21.7744 18.093 21.7871C18.0567 21.7997 18.0234 21.8201 17.9954 21.8468C17.9682 21.8774 17.9471 21.9132 17.9336 21.9521C17.92 21.991 17.9142 22.0322 17.9164 22.0734V22.2334ZM13.0613 27.8401C13.0583 27.8464 13.0568 27.8532 13.0568 27.8601C13.0568 27.867 13.0583 27.8738 13.0613 27.8801H14.0955V24.9334C14.0955 24.8963 14.1101 24.8607 14.136 24.8344C14.162 24.8082 14.1972 24.7934 14.2339 24.7934H15.9335C15.9397 24.7964 15.9464 24.7979 15.9533 24.7979C15.9601 24.7979 15.9668 24.7964 15.973 24.7934C15.9771 24.7827 15.9771 24.7708 15.973 24.7601V24.2001C15.9759 24.1938 15.9775 24.187 15.9775 24.1801C15.9775 24.1732 15.9759 24.1663 15.973 24.1601H14.2734C14.2555 24.161 14.2377 24.1582 14.221 24.1519C14.2042 24.1456 14.1889 24.136 14.1759 24.1235C14.163 24.111 14.1527 24.096 14.1457 24.0794C14.1386 24.0627 14.135 24.0448 14.1351 24.0268V23.8601C14.0933 23.4428 14.2164 23.0257 14.4776 22.7001C14.8754 22.4647 15.3364 22.3621 15.7951 22.4068C15.9168 22.4102 16.038 22.4236 16.1575 22.4468C16.2408 22.4528 16.3245 22.4528 16.4078 22.4468H16.6054C16.611 22.4317 16.611 22.4151 16.6054 22.4001V21.8934C16.5951 21.8886 16.5839 21.8862 16.5725 21.8862C16.5611 21.8862 16.5499 21.8886 16.5396 21.8934C16.1588 21.8279 15.7728 21.7989 15.3867 21.8068C14.7399 21.7526 14.0937 21.9167 13.5487 22.2734C13.1794 22.7264 13.0018 23.3086 13.0547 23.8934L13.0613 27.8401ZM8.20615 27.8401C8.20322 27.8464 8.20169 27.8532 8.20169 27.8601C8.20169 27.867 8.20322 27.8738 8.20615 27.8801H9.24041V24.9334C9.23952 24.9154 9.24226 24.8973 9.24848 24.8804C9.2547 24.8634 9.26426 24.8479 9.27659 24.8348C9.28891 24.8217 9.30374 24.8113 9.32017 24.8042C9.3366 24.7971 9.35429 24.7934 9.37216 24.7934H11.0784C11.0784 24.7934 11.0784 24.7934 11.0784 24.7601V24.2001C11.0813 24.1938 11.0828 24.187 11.0828 24.1801C11.0828 24.1732 11.0813 24.1663 11.0784 24.1601H9.41169C9.39439 24.1601 9.37726 24.1566 9.36127 24.1499C9.34529 24.1432 9.33076 24.1334 9.31853 24.121C9.30629 24.1087 9.29658 24.094 9.28996 24.0778C9.28334 24.0616 9.27994 24.0443 9.27994 24.0268V23.8601C9.25777 23.6534 9.27666 23.4443 9.33548 23.2451C9.39431 23.0459 9.49189 22.8606 9.62249 22.7001C10.02 22.4638 10.4813 22.3611 10.94 22.4068C11.0617 22.4102 11.1828 22.4236 11.3024 22.4468C11.3857 22.4528 11.4693 22.4528 11.5527 22.4468H11.7503C11.7559 22.4317 11.7559 22.4151 11.7503 22.4001V21.8934C11.7399 21.889 11.7287 21.8868 11.7174 21.8868C11.7061 21.8868 11.6949 21.889 11.6844 21.8934C11.306 21.8277 10.9221 21.7986 10.5382 21.8068C9.89133 21.7516 9.24473 21.9158 8.70022 22.2734C8.33088 22.7264 8.1533 23.3086 8.20615 23.8934V27.8401ZM2.936 24.3268C3.06305 24.171 3.22489 24.048 3.40816 23.968C3.59143 23.8881 3.79088 23.8533 3.99003 23.8668C4.18972 23.857 4.38899 23.8933 4.57275 23.973C4.7565 24.0527 4.91993 24.1737 5.05065 24.3268C5.29732 24.7244 5.41054 25.1921 5.37344 25.6601C5.40774 26.1279 5.29474 26.5947 5.05065 26.9934C4.91459 27.1389 4.75066 27.2547 4.56887 27.3339C4.38707 27.4131 4.19124 27.4539 3.99332 27.4539C3.79541 27.4539 3.59957 27.4131 3.41778 27.3339C3.23599 27.2547 3.07205 27.1389 2.936 26.9934C2.69191 26.5947 2.57891 26.1279 2.61321 25.6601C2.57116 25.1943 2.67733 24.7271 2.91624 24.3268H2.936ZM2.14548 27.3934C2.68776 27.7754 3.33262 27.9802 3.99332 27.9802C4.65403 27.9802 5.29889 27.7754 5.84117 27.3934C6.06553 27.1637 6.24002 26.8891 6.35346 26.5871C6.4669 26.2852 6.51679 25.9627 6.49993 25.6401C6.51876 25.3183 6.46977 24.9962 6.35619 24.6951C6.24262 24.3939 6.06706 24.1207 5.84117 23.8934C5.30033 23.5078 4.65492 23.3008 3.99332 23.3008C3.33173 23.3008 2.68631 23.5078 2.14548 23.8934C1.91959 24.1207 1.74403 24.3939 1.63046 24.6951C1.51688 24.9962 1.46788 25.3183 1.48671 25.6401C1.46727 25.9612 1.51404 26.2829 1.62405 26.5848C1.73406 26.8866 1.9049 27.162 2.12572 27.3934H2.14548Z" fill="#160F07"/>
</svg>
