<svg width="16" height="16" viewBox="0 0 16 16" fill="none" xmlns="http://www.w3.org/2000/svg">
<rect x="4" y="4" width="8" height="8" rx="4" fill="#8D8884"/>
<rect x="6" y="6" width="4" height="4" rx="2" fill="white"/>
<path fill-rule="evenodd" clip-rule="evenodd" d="M7.25 1H6V5H7.25V1ZM8.75 1V5H10V1H8.75Z" fill="#8D8884"/>
<path fill-rule="evenodd" clip-rule="evenodd" d="M7.25 10.9956H6V15H7.25V10.9956ZM8.75 10.9956V15H10V10.9956H8.75Z" fill="#8D8884"/>
<path fill-rule="evenodd" clip-rule="evenodd" d="M1 8.75L1 10L5.00049 10L5.00049 8.75L1 8.75ZM1 7.25L5.00049 7.25L5.00049 6L1 6L1 7.25Z" fill="#8D8884"/>
<path fill-rule="evenodd" clip-rule="evenodd" d="M11.0044 8.75L11.0044 10L15 10L15 6L11.0044 6L11.0044 7.25L15 7.25L15 8.75L11.0044 8.75Z" fill="#8D8884"/>
</svg>
