<svg width="181" height="37" viewBox="0 0 181 37" fill="none" xmlns="http://www.w3.org/2000/svg">
<path d="M162.001 17.5114V1.62C162 1.46029 162.032 1.30211 162.093 1.15487C162.155 1.00762 162.246 0.874307 162.361 0.762857C162.471 0.646846 162.604 0.554956 162.751 0.492992C162.899 0.431028 163.058 0.400337 163.218 0.402858H165.618C165.778 0.398732 165.937 0.428693 166.085 0.490755C166.233 0.552818 166.366 0.645564 166.475 0.762857C166.588 0.874731 166.678 1.00832 166.738 1.1556C166.798 1.30288 166.828 1.46083 166.826 1.62V14.9571C166.826 14.989 166.839 15.0195 166.861 15.042C166.884 15.0645 166.914 15.0771 166.946 15.0771H177.943C178.104 15.073 178.263 15.103 178.411 15.165C178.558 15.2271 178.691 15.3199 178.801 15.4371C178.914 15.549 179.003 15.6826 179.064 15.8299C179.124 15.9772 179.154 16.1351 179.152 16.2943V17.4943C179.152 17.6519 179.121 17.8079 179.061 17.9535C179 18.0991 178.912 18.2314 178.8 18.3428C178.689 18.4543 178.557 18.5426 178.411 18.6029C178.266 18.6633 178.11 18.6943 177.952 18.6943H163.166C163.008 18.698 162.85 18.6696 162.703 18.6106C162.555 18.5517 162.421 18.4635 162.309 18.3514C162.189 18.2444 162.094 18.1119 162.032 17.9636C161.97 17.8153 161.941 17.655 161.949 17.4943M142.732 10.6371H150.523C150.555 10.6371 150.586 10.6245 150.608 10.602C150.631 10.5795 150.643 10.549 150.643 10.5171V4.11429C150.643 4.08246 150.631 4.05194 150.608 4.02944C150.586 4.00693 150.555 3.99429 150.523 3.99429H147.018C146.251 3.98164 145.503 4.22608 144.892 4.68857C144.282 5.15646 143.849 5.81869 143.666 6.56572L142.621 10.5429C142.607 10.5758 142.607 10.6127 142.621 10.6457C142.637 10.659 142.657 10.6675 142.678 10.6706C142.699 10.6736 142.721 10.6709 142.741 10.6629L142.732 10.6371ZM135.806 17.4943L139.021 5.4C139.883 2.09143 142.706 0.434286 147.489 0.428571H154.346C154.496 0.425149 154.645 0.455762 154.782 0.51811C154.918 0.580458 155.039 0.672929 155.135 0.788576C155.346 1.02319 155.46 1.32995 155.452 1.64572V17.5886C155.46 17.7492 155.431 17.9096 155.369 18.0579C155.307 18.2062 155.212 18.3387 155.092 18.4457C154.979 18.5574 154.845 18.6453 154.698 18.7042C154.551 18.7631 154.393 18.7918 154.235 18.7886H151.835C151.676 18.7944 151.518 18.7668 151.37 18.7078C151.222 18.6487 151.089 18.5595 150.978 18.4457C150.865 18.3337 150.777 18.1999 150.718 18.0525C150.659 17.9051 150.631 17.7473 150.635 17.5886V14.4857C150.635 14.4703 150.632 14.4551 150.626 14.441C150.619 14.4269 150.61 14.4142 150.599 14.4037C150.588 14.3933 150.575 14.3852 150.56 14.3802C150.546 14.3751 150.53 14.3731 150.515 14.3743H141.686C141.661 14.3736 141.636 14.3817 141.615 14.3974C141.595 14.413 141.581 14.4351 141.575 14.46L140.718 17.5971C140.632 17.9409 140.429 18.2439 140.143 18.4543C139.872 18.6686 139.537 18.7862 139.192 18.7886H136.715C136.57 18.7998 136.425 18.7743 136.293 18.7143C136.162 18.6544 136.047 18.562 135.961 18.4457C135.844 18.2961 135.781 18.1122 135.781 17.9229C135.781 17.8286 135.781 17.7343 135.781 17.6229L135.806 17.4943ZM111.806 17.4943V1.59429C111.804 1.43512 111.834 1.27717 111.895 1.12988C111.955 0.982602 112.044 0.849018 112.158 0.737143C112.267 0.619851 112.4 0.527105 112.548 0.465042C112.695 0.402979 112.855 0.373019 113.015 0.377145H116.803C117.148 0.394277 117.478 0.52033 117.746 0.737143C118.086 0.963552 118.377 1.25485 118.603 1.59429L126.146 13.1143C126.166 13.1283 126.19 13.1358 126.215 13.1358C126.239 13.1358 126.263 13.1283 126.283 13.1143C126.308 13.1071 126.329 13.0924 126.344 13.0724C126.36 13.0524 126.368 13.0281 126.369 13.0029V1.56857C126.364 1.41056 126.391 1.25319 126.449 1.1059C126.506 0.958618 126.593 0.824443 126.703 0.71143C126.813 0.595435 126.946 0.504675 127.094 0.445463C127.242 0.386251 127.401 0.36001 127.561 0.368572H129.669C129.821 0.365627 129.972 0.394621 130.113 0.453676C130.253 0.512732 130.379 0.600538 130.483 0.71143C130.593 0.825289 130.679 0.959612 130.736 1.1067C130.793 1.25378 130.821 1.41074 130.818 1.56857V17.4857C130.823 17.6445 130.795 17.8027 130.736 17.9503C130.677 18.0978 130.588 18.2315 130.475 18.3429C130.365 18.4586 130.232 18.5498 130.084 18.6103C129.936 18.6709 129.777 18.6995 129.618 18.6943H125.435C125.073 18.6807 124.723 18.5583 124.432 18.3429C124.082 18.1295 123.788 17.8357 123.575 17.4857L116.838 6.88286C116.824 6.85977 116.803 6.84197 116.778 6.83232C116.753 6.82267 116.725 6.82172 116.699 6.82962C116.674 6.83753 116.651 6.85383 116.636 6.87592C116.621 6.89801 116.613 6.9246 116.615 6.95143V17.4857C116.619 17.6459 116.589 17.8052 116.527 17.953C116.465 18.1007 116.372 18.2336 116.255 18.3429C116.026 18.5668 115.718 18.6929 115.398 18.6943H113.075C112.755 18.6911 112.448 18.5653 112.218 18.3429C112.095 18.2367 111.997 18.105 111.93 17.957C111.863 17.8089 111.83 17.6481 111.832 17.4857L111.806 17.4943ZM91.9205 4.98857C90.9675 6.30967 90.5094 7.9238 90.6262 9.54857C90.5094 11.1733 90.9675 12.7875 91.9205 14.1086C92.7948 15.1257 94.1862 15.6343 96.0948 15.6343C98.0034 15.6343 99.3948 15.1257 100.269 14.1086C101.219 12.7863 101.674 11.1723 101.555 9.54857C101.674 7.92484 101.219 6.3108 100.269 4.98857C99.412 3.96 98.0234 3.45429 96.0948 3.45429C94.1662 3.45429 92.8205 3.95143 91.9462 4.98L91.9205 4.98857ZM88.432 16.8C86.7177 15.2743 85.8605 12.8543 85.8605 9.54C85.8605 6.22572 86.7177 3.80858 88.432 2.28858C90.1805 0.762862 92.7348 0 96.0948 0C99.4548 0 102.009 0.762862 103.758 2.28858C105.472 3.81429 106.329 6.23143 106.329 9.54C106.329 12.8486 105.472 15.2686 103.758 16.8C102.043 18.3257 99.4891 19.0886 96.0948 19.0886C92.7005 19.0886 90.1548 18.3229 88.4577 16.7914L88.432 16.8ZM61.372 9.54857C61.372 6.37714 62.1605 4.04286 63.7377 2.54572C65.3148 1.04857 67.6834 0.285717 70.8434 0.257145H73.7148C75.4942 0.243618 77.2432 0.717935 78.772 1.62857C80.2805 2.52857 81.0348 3.64286 81.0348 4.98857C81.0529 5.19033 81.02 5.3934 80.9391 5.57912C80.8583 5.76484 80.732 5.92726 80.572 6.05143C80.3262 6.24373 80.0266 6.35459 79.7148 6.36857H78.2062C77.8362 6.36046 77.4766 6.24411 77.1719 6.03389C76.8673 5.82368 76.6309 5.52881 76.492 5.18572C76.0377 4.32857 74.9577 3.89143 73.252 3.89143H70.972C69.1034 3.89143 67.8434 4.28572 67.1748 5.09143C66.5062 5.89714 66.1891 7.37143 66.1891 9.54857C66.1891 11.7257 66.4805 13.1314 67.0462 13.9543C67.612 14.7771 68.7005 15.18 70.2348 15.18H72.8062C73.8492 15.2773 74.8931 15.0042 75.7548 14.4086C76.0352 14.1405 76.2564 13.8167 76.404 13.4579C76.5517 13.0992 76.6225 12.7135 76.612 12.3257C76.6176 12.3121 76.6205 12.2976 76.6205 12.2829C76.6205 12.2681 76.6176 12.2536 76.612 12.24C76.5985 12.2338 76.5839 12.2306 76.5691 12.2306C76.5543 12.2306 76.5397 12.2338 76.5262 12.24H73.8434C73.6834 12.2425 73.5246 12.2118 73.3771 12.1499C73.2295 12.0879 73.0965 11.996 72.9862 11.88C72.8738 11.7675 72.7848 11.6339 72.7245 11.4867C72.6642 11.3396 72.6337 11.1819 72.6348 11.0229V9.96858C72.6322 9.80934 72.662 9.65123 72.7224 9.50388C72.7829 9.35653 72.8726 9.22301 72.9862 9.11143C73.0965 8.99542 73.2295 8.90353 73.3771 8.84157C73.5246 8.7796 73.6834 8.74891 73.8434 8.75143H80.2462C80.5615 8.75594 80.8624 8.88435 81.0837 9.10891C81.3051 9.33347 81.4291 9.63612 81.4291 9.95143V11.4C81.4931 12.4178 81.3345 13.4374 80.9644 14.3877C80.5944 15.338 80.0217 16.1963 79.2862 16.9029C77.8548 18.1714 75.7548 18.8143 72.9862 18.8143H70.1405C67.3234 18.8143 65.1577 18.0543 63.6434 16.5343C62.1291 15.0143 61.372 12.6857 61.372 9.54857ZM43.2005 10.6629H51.0005C51.0317 10.6608 51.0611 10.6476 51.0831 10.6255C51.1052 10.6034 51.1185 10.574 51.1205 10.5429V4.11429C51.1205 4.08246 51.1079 4.05194 51.0854 4.02944C51.0629 4.00693 51.0324 3.99429 51.0005 3.99429H47.4948C46.7256 3.97603 45.9732 4.22098 45.3622 4.6886C44.7512 5.15622 44.3182 5.81846 44.1348 6.56572L43.0805 10.5429C43.0723 10.5587 43.068 10.5764 43.068 10.5943C43.068 10.6122 43.0723 10.6298 43.0805 10.6457C43.0953 10.6622 43.1155 10.673 43.1374 10.6761C43.1594 10.6793 43.1817 10.6746 43.2005 10.6629ZM36.2748 17.52L39.4805 5.4C40.3491 2.09143 43.172 0.434286 47.9491 0.428571H54.8062C54.9549 0.426445 55.1021 0.457685 55.2371 0.519987C55.3721 0.582289 55.4914 0.674073 55.5862 0.788576C55.8009 1.02127 55.9149 1.32936 55.9034 1.64572V17.5886C55.911 17.7492 55.8826 17.9096 55.8203 18.0579C55.7581 18.2062 55.6634 18.3387 55.5434 18.4457C55.4311 18.5578 55.2972 18.646 55.1499 18.7049C55.0026 18.7638 54.8449 18.7923 54.6862 18.7886H52.2862C52.1274 18.7944 51.969 18.7668 51.8214 18.7078C51.6738 18.6487 51.5402 18.5595 51.4291 18.4457C51.3177 18.3333 51.2306 18.1992 51.1731 18.0518C51.1156 17.9044 51.089 17.7467 51.0948 17.5886V14.4857C51.0926 14.4554 51.0791 14.427 51.0568 14.4064C51.0345 14.3857 51.0052 14.3742 50.9748 14.3743H42.172C42.1453 14.3732 42.119 14.381 42.0972 14.3965C42.0755 14.4121 42.0596 14.4344 42.052 14.46L41.1948 17.5971C41.1002 17.9321 40.9013 18.2283 40.6269 18.4425C40.3526 18.6568 40.017 18.778 39.6691 18.7886H37.1748C37.0304 18.7998 36.8854 18.7743 36.7535 18.7143C36.6216 18.6544 36.507 18.562 36.4205 18.4457C36.3044 18.2961 36.2411 18.1122 36.2405 17.9229C36.2405 17.8286 36.2405 17.7343 36.2405 17.6229L36.2748 17.52ZM26.4862 17.52V1.59429C26.4907 1.27367 26.6207 0.967569 26.8482 0.741636C27.0757 0.515703 27.3827 0.387929 27.7034 0.385718H30.0777C30.2376 0.383714 30.3962 0.414638 30.5437 0.476571C30.6911 0.538504 30.8243 0.63012 30.9348 0.745717C31.0481 0.857591 31.1375 0.991169 31.1979 1.13845C31.2583 1.28573 31.2884 1.44369 31.2862 1.60286V17.4857C31.2887 17.6465 31.2572 17.806 31.1937 17.9537C31.1301 18.1014 31.0361 18.2341 30.9177 18.3429C30.8049 18.4549 30.6712 18.5437 30.5241 18.604C30.377 18.6643 30.2195 18.695 30.0605 18.6943H27.7034C27.5448 18.6975 27.3872 18.6688 27.24 18.6099C27.0927 18.551 26.9588 18.4631 26.8462 18.3514C26.7285 18.2462 26.6352 18.1165 26.573 17.9714C26.5108 17.8263 26.4812 17.6692 26.4862 17.5114V17.52ZM4.32911 0.377145H10.4748C14.1605 0.377145 16.852 1.11429 18.532 2.58858C20.212 4.06286 21.052 6.37715 21.052 9.53143C21.1534 11.5458 20.6457 13.5441 19.5948 15.2657C19.5732 15.2924 19.5428 15.3106 19.5091 15.3171C19.4788 15.3291 19.4451 15.3291 19.4148 15.3171L16.0291 12.0086C16.0193 11.9916 16.0142 11.9724 16.0142 11.9529C16.0142 11.9333 16.0193 11.9141 16.0291 11.8971C16.2076 11.1243 16.2939 10.3331 16.2862 9.54C16.2862 7.51715 15.872 6.08858 15.0434 5.25429C14.2148 4.42 12.6577 4 10.372 3.99429H7.8091C7.79553 3.99995 7.78096 4.00286 7.76625 4.00286C7.75154 4.00286 7.73697 3.99995 7.72339 3.99429L4.28625 0.591431C4.27405 0.572207 4.26758 0.549914 4.26758 0.527148C4.26758 0.504382 4.27405 0.482081 4.28625 0.462858C4.29099 0.432893 4.30617 0.405571 4.32911 0.385718V0.377145ZM2.12625 17.52V2.94857C2.1225 2.92377 2.12724 2.89844 2.13968 2.87666C2.15213 2.85488 2.17155 2.83794 2.19482 2.82857C2.21404 2.81638 2.23634 2.8099 2.25911 2.8099C2.28187 2.8099 2.30417 2.81638 2.32339 2.82857L6.90053 7.26C6.9067 7.27345 6.90989 7.28807 6.90989 7.30286C6.90989 7.31765 6.9067 7.33227 6.90053 7.34571V14.9143C6.90053 14.93 6.90364 14.9456 6.90967 14.9602C6.9157 14.9748 6.92454 14.988 6.93568 14.9991C6.94682 15.0103 6.96005 15.0191 6.97461 15.0252C6.98917 15.0312 7.00477 15.0343 7.02053 15.0343H10.2948C11.5958 15.0995 12.8953 14.877 14.1005 14.3829C14.1194 14.366 14.1438 14.3567 14.1691 14.3567C14.1944 14.3567 14.2188 14.366 14.2377 14.3829L17.1434 17.2371C17.1533 17.2524 17.1587 17.2703 17.1587 17.2886C17.1587 17.3068 17.1533 17.3247 17.1434 17.34C17.142 17.3584 17.1357 17.376 17.1251 17.3911C17.1145 17.4061 17.1001 17.4181 17.0834 17.4257C14.9972 18.3565 12.7227 18.7879 10.4405 18.6857H3.33482C3.17626 18.6889 3.01867 18.6603 2.87142 18.6014C2.72417 18.5425 2.59027 18.4545 2.47768 18.3429C2.36392 18.2368 2.27381 18.1079 2.21326 17.9646C2.1527 17.8214 2.12305 17.6669 2.12625 17.5114V17.52Z" fill="#160F07"/>
<path opacity="0.56" fill-rule="evenodd" clip-rule="evenodd" d="M86.4057 35.7942C86.4017 35.8112 86.4017 35.8288 86.4057 35.8457H87.7514C87.7514 35.8457 87.7514 35.8457 87.8029 35.8457V32.0742C87.8025 32.033 87.8178 31.9932 87.8457 31.9628C88.0414 31.6832 88.2966 31.4506 88.593 31.2816C88.8895 31.1126 89.2198 31.0115 89.56 30.9857H90.0314H90.4514H90.6914V30.1285C90.6834 30.1247 90.6746 30.1227 90.6657 30.1227C90.6568 30.1227 90.648 30.1247 90.64 30.1285C90.1868 30.114 89.7344 30.1778 89.3029 30.3171C88.9213 30.4664 88.5611 30.6652 88.2314 30.9085L88.0429 31.0457C88.0145 31.0631 87.9819 31.0723 87.9486 31.0723C87.9153 31.0723 87.8827 31.0631 87.8543 31.0457C87.8251 31.0321 87.8006 31.0103 87.7838 30.9828C87.767 30.9554 87.7587 30.9235 87.76 30.8914V30.3C87.764 30.283 87.764 30.2654 87.76 30.2485H86.4057C86.4057 30.2485 86.4057 30.2485 86.4057 30.3V35.7942ZM79.3857 32.3657C79.3694 32.139 79.3999 31.9114 79.4754 31.697C79.5509 31.4827 79.6698 31.2862 79.8246 31.1198C79.9794 30.9534 80.1669 30.8207 80.3752 30.7299C80.5836 30.6392 80.8084 30.5924 81.0357 30.5924C81.263 30.5924 81.4878 30.6392 81.6962 30.7299C81.9046 30.8207 82.092 30.9534 82.2468 31.1198C82.4016 31.2862 82.5205 31.4827 82.596 31.697C82.6715 31.9114 82.7021 32.139 82.6857 32.3657V32.4942C82.6895 32.5175 82.6876 32.5414 82.6802 32.5638C82.6727 32.5862 82.6599 32.6065 82.6429 32.6228C82.6072 32.6543 82.5618 32.6725 82.5143 32.6742H79.5571C79.5333 32.6751 79.5096 32.6709 79.4874 32.6621C79.4653 32.6532 79.4453 32.6399 79.4286 32.6228C79.3959 32.5846 79.3777 32.536 79.3772 32.4857L79.3857 32.3657ZM78.7429 35.2457C79.3839 35.7817 80.206 36.0517 81.04 35.9999C81.7943 35.9999 83.3971 35.9399 83.8086 35.1428C83.8876 34.9924 83.926 34.824 83.92 34.6542C83.9272 34.6349 83.9272 34.6136 83.92 34.5942H82.9943C82.9097 34.5892 82.825 34.6044 82.7475 34.6387C82.67 34.673 82.6018 34.7253 82.5486 34.7914C82.3708 34.9673 82.1567 35.1022 81.9213 35.1866C81.6858 35.271 81.4348 35.3029 81.1857 35.28C80.7288 35.3091 80.2763 35.1755 79.9086 34.9028C79.7516 34.7514 79.6261 34.5705 79.5393 34.3704C79.4525 34.1704 79.4062 33.9551 79.4029 33.7371V33.6085C79.4018 33.5579 79.4202 33.5088 79.4543 33.4714C79.4694 33.4518 79.4889 33.4362 79.5113 33.4257C79.5337 33.4153 79.5582 33.4104 79.5829 33.4114H84.0914C84.0953 33.4033 84.0972 33.3946 84.0972 33.3857C84.0972 33.3768 84.0953 33.368 84.0914 33.36V33.0171C84.1177 32.6089 84.0597 32.1996 83.9211 31.8148C83.7825 31.4299 83.5662 31.0777 83.2857 30.78C82.6289 30.2767 81.8246 30.004 80.9972 30.004C80.1697 30.004 79.3654 30.2767 78.7086 30.78C78.1851 31.4096 77.8984 32.2025 77.8984 33.0214C77.8984 33.8402 78.1851 34.6332 78.7086 35.2628L78.7429 35.2457ZM72.46 33.6857C72.46 35.2028 73.1029 35.9999 74.6629 35.9999C75.1624 36.0098 75.6618 35.9725 76.1543 35.8885C76.1852 35.8969 76.2177 35.8969 76.2486 35.8885V35.2714C76.2292 35.2642 76.2079 35.2642 76.1886 35.2714H75.9743C75.8714 35.2714 75.7429 35.2714 75.64 35.2714C75.486 35.2841 75.3312 35.2841 75.1771 35.2714C74.9939 35.2769 74.8118 35.2413 74.6442 35.1671C74.4766 35.0929 74.3277 34.9821 74.2086 34.8428C73.9646 34.524 73.8402 34.1296 73.8571 33.7285V31.4485C73.8571 31.4008 73.8761 31.355 73.9099 31.3212C73.9436 31.2875 73.9894 31.2685 74.0371 31.2685H75.7514C75.7514 31.2685 75.7514 31.2685 75.7943 31.2685V30.5742C75.7983 30.5573 75.7983 30.5397 75.7943 30.5228H74.02C73.9964 30.5228 73.973 30.5182 73.9511 30.5091C73.9293 30.5001 73.9094 30.4868 73.8927 30.4701C73.876 30.4534 73.8628 30.4335 73.8537 30.4117C73.8447 30.3899 73.84 30.3664 73.84 30.3428V28.2857C73.8438 28.2776 73.8458 28.2688 73.8458 28.2599C73.8458 28.2511 73.8438 28.2423 73.84 28.2342H72.4943C72.4876 28.2312 72.4803 28.2296 72.4729 28.2296C72.4655 28.2296 72.4582 28.2312 72.4514 28.2342L72.46 33.6857ZM63.7343 35.82C63.7305 35.828 63.7285 35.8368 63.7285 35.8457C63.7285 35.8546 63.7305 35.8633 63.7343 35.8714H65.08C65.088 35.8752 65.0968 35.8772 65.1057 35.8772C65.1146 35.8772 65.1234 35.8752 65.1314 35.8714V31.9285C65.1306 31.9047 65.1347 31.881 65.1436 31.8588C65.1524 31.8367 65.1658 31.8166 65.1829 31.8C65.631 31.2778 66.2637 30.9492 66.9486 30.8828C67.9771 30.8828 68.3543 31.6285 68.3543 32.5971V35.9314C68.3495 35.9482 68.3495 35.966 68.3543 35.9828H69.6914C69.7008 35.9873 69.711 35.9897 69.7214 35.9897C69.7318 35.9897 69.7421 35.9873 69.7514 35.9828V32.6485C69.7797 32.3076 69.7397 31.9644 69.6338 31.6392C69.5278 31.3139 69.358 31.0131 69.1343 30.7542C68.6639 30.3359 68.0489 30.1176 67.42 30.1457C66.7321 30.1763 66.078 30.4531 65.5771 30.9257L65.38 31.0885C65.3513 31.1051 65.3188 31.1138 65.2857 31.1138C65.2526 31.1138 65.2201 31.1051 65.1914 31.0885C65.1606 31.0739 65.1346 31.0508 65.1164 31.022C65.0982 30.9932 65.0885 30.9598 65.0886 30.9257V30.3C65.0924 30.2919 65.0944 30.2831 65.0944 30.2742C65.0944 30.2653 65.0924 30.2566 65.0886 30.2485H63.7943C63.7943 30.2485 63.7943 30.2485 63.7943 30.3L63.7343 35.82ZM56.7229 32.3914C56.7062 32.1699 56.7376 31.9474 56.8148 31.7391C56.892 31.5308 57.0133 31.3417 57.1704 31.1846C57.3275 31.0276 57.5166 30.9063 57.7249 30.829C57.9331 30.7518 58.1556 30.7204 58.3771 30.7371C58.5983 30.7186 58.8208 30.7488 59.0291 30.8256C59.2373 30.9024 59.4261 31.024 59.5822 31.1818C59.7383 31.3395 59.8579 31.5296 59.9326 31.7386C60.0072 31.9476 60.0351 32.1704 60.0143 32.3914V32.5199C60.0141 32.5678 59.9957 32.6137 59.9629 32.6485C59.9462 32.6656 59.9261 32.6789 59.904 32.6878C59.8819 32.6967 59.8581 32.7008 59.8343 32.6999H56.8857C56.8619 32.7008 56.8381 32.6967 56.816 32.6878C56.7939 32.6789 56.7738 32.6656 56.7571 32.6485C56.7244 32.6103 56.7062 32.5617 56.7057 32.5114L56.7229 32.3914ZM56.08 35.2714C56.7206 35.8082 57.543 36.0783 58.3771 36.0257C59.1314 36.0257 60.7343 35.9657 61.1457 35.1685C61.221 35.0168 61.2592 34.8493 61.2572 34.68C61.2644 34.6606 61.2644 34.6393 61.2572 34.6199H60.3486C60.2639 34.6149 60.1793 34.6301 60.1018 34.6644C60.0242 34.6987 59.956 34.7511 59.9029 34.8171C59.7251 34.993 59.511 35.1279 59.2755 35.2123C59.0401 35.2967 58.7891 35.3286 58.54 35.3057C58.083 35.3356 57.6303 35.2019 57.2629 34.9285C56.948 34.6204 56.7639 34.203 56.7486 33.7628V33.6342C56.7458 33.609 56.7491 33.5834 56.758 33.5596C56.7669 33.5357 56.7813 33.5143 56.8 33.4971C56.8151 33.4775 56.8346 33.4619 56.857 33.4514C56.8794 33.441 56.9039 33.4361 56.9286 33.4371H61.4371C61.4439 33.4402 61.4512 33.4418 61.4586 33.4418C61.466 33.4418 61.4733 33.4402 61.48 33.4371C61.4838 33.4291 61.4858 33.4203 61.4858 33.4114C61.4858 33.4025 61.4838 33.3937 61.48 33.3857V33.0428C61.5063 32.6346 61.4483 32.2253 61.3097 31.8405C61.1711 31.4556 60.9548 31.1034 60.6743 30.8057C60.0175 30.3024 59.2131 30.0297 58.3857 30.0297C57.5583 30.0297 56.7539 30.3024 56.0972 30.8057C55.8129 31.1047 55.5938 31.4594 55.4536 31.8474C55.3135 32.2354 55.2553 32.6483 55.2829 33.0599C55.2631 33.4551 55.3235 33.8503 55.4605 34.2215C55.5975 34.5927 55.8082 34.9323 56.08 35.2199V35.2714ZM47.2857 33.0171C47.256 33.4282 47.3123 33.841 47.451 34.2291C47.5897 34.6173 47.8079 34.9723 48.0914 35.2714C48.7736 35.8117 49.6315 36.0803 50.5 36.0257C51.285 36.0654 52.0671 35.9031 52.7714 35.5542C52.9979 35.4334 53.1857 35.251 53.3131 35.028C53.4405 34.8051 53.5023 34.5508 53.4914 34.2942C53.4834 34.2904 53.4746 34.2884 53.4657 34.2884C53.4568 34.2884 53.448 34.2904 53.44 34.2942H52.5829C52.4923 34.3014 52.4051 34.332 52.3299 34.3831C52.2548 34.4342 52.1942 34.504 52.1543 34.5857C51.9794 34.815 51.7494 34.9965 51.4857 35.1134C51.222 35.2303 50.9331 35.2787 50.6457 35.2542C50.3739 35.278 50.1003 35.2403 49.845 35.1438C49.5898 35.0474 49.3596 34.8947 49.1714 34.6971C48.8546 34.2124 48.7041 33.6377 48.7429 33.0599C48.7033 32.4844 48.8474 31.9112 49.1543 31.4228C49.3331 31.225 49.5556 31.0717 49.8041 30.9749C50.0526 30.8782 50.3202 30.8408 50.5857 30.8657C50.8753 30.8407 51.1664 30.8897 51.4318 31.0082C51.6972 31.1266 51.9281 31.3106 52.1029 31.5428C52.1418 31.6227 52.2012 31.6909 52.2749 31.7406C52.3486 31.7902 52.4342 31.8196 52.5229 31.8257H53.4657C53.4756 31.5693 53.4133 31.3154 53.286 31.0926C53.1588 30.8699 52.9716 30.6873 52.7457 30.5657C52.0397 30.2218 51.2589 30.0597 50.4743 30.0942C49.623 30.0412 48.7834 30.3139 48.1257 30.8571C47.8537 31.1359 47.6395 31.4657 47.4954 31.8276C47.3512 32.1894 47.28 32.5762 47.2857 32.9657V33.0171ZM36.46 32.3914C36.4437 32.1647 36.4742 31.9371 36.5497 31.7227C36.6252 31.5084 36.7441 31.3119 36.8989 31.1455C37.0537 30.9791 37.2412 30.8464 37.4495 30.7557C37.6579 30.6649 37.8827 30.6181 38.11 30.6181C38.3373 30.6181 38.5621 30.6649 38.7705 30.7557C38.9789 30.8464 39.1663 30.9791 39.3211 31.1455C39.4759 31.3119 39.5948 31.5084 39.6703 31.7227C39.7458 31.9371 39.7764 32.1647 39.76 32.3914V32.5199C39.7698 32.54 39.775 32.5619 39.775 32.5842C39.775 32.6065 39.7698 32.6285 39.76 32.6485C39.7433 32.6656 39.7233 32.6789 39.7011 32.6878C39.679 32.6967 39.6553 32.7008 39.6314 32.6999H36.6229C36.599 32.7008 36.5753 32.6967 36.5532 32.6878C36.531 32.6789 36.511 32.6656 36.4943 32.6485C36.4843 32.627 36.4792 32.6036 36.4792 32.5799C36.4792 32.5563 36.4843 32.5329 36.4943 32.5114L36.46 32.3914ZM35.8172 35.2714C36.4582 35.8074 37.2803 36.0774 38.1143 36.0257C38.8686 36.0257 40.4714 35.9657 40.8914 35.1685C40.964 35.0161 40.9993 34.8487 40.9943 34.68C41.0015 34.6606 41.0015 34.6393 40.9943 34.6199H40.0514C39.9668 34.6149 39.8822 34.6301 39.8046 34.6644C39.7271 34.6987 39.6589 34.7511 39.6057 34.8171C39.428 34.993 39.2138 35.1279 38.9784 35.2123C38.743 35.2967 38.4919 35.3286 38.2429 35.3057C37.786 35.3348 37.3335 35.2012 36.9657 34.9285C36.654 34.6191 36.473 34.2018 36.46 33.7628V33.6342C36.4589 33.5836 36.4773 33.5345 36.5114 33.4971C36.5265 33.4775 36.546 33.4619 36.5684 33.4514C36.5908 33.441 36.6153 33.4361 36.64 33.4371H41.1486C41.1545 33.4205 41.1545 33.4023 41.1486 33.3857V33.0428C41.1728 32.6348 41.1139 32.2261 40.9754 31.8415C40.8369 31.457 40.6217 31.1045 40.3429 30.8057C39.6841 30.3031 38.8786 30.0309 38.05 30.0309C37.2215 30.0309 36.4159 30.3031 35.7571 30.8057C35.2336 31.4353 34.947 32.2283 34.947 33.0471C34.947 33.8659 35.2336 34.6589 35.7571 35.2885L35.8172 35.2714ZM27.0229 32.9657C26.9982 33.3807 27.0619 33.7962 27.2096 34.1847C27.3574 34.5733 27.5859 34.9262 27.88 35.2199C28.561 35.7624 29.4198 36.0314 30.2886 35.9742C31.0707 36.0129 31.8498 35.8506 32.5514 35.5028C32.7793 35.3835 32.9682 35.2015 33.0958 34.9782C33.2234 34.7549 33.2844 34.4997 33.2714 34.2428C33.2521 34.2356 33.2308 34.2356 33.2114 34.2428H32.3543C32.2635 34.2491 32.1759 34.2794 32.1006 34.3306C32.0253 34.3818 31.965 34.4521 31.9257 34.5342C31.75 34.7649 31.5187 34.9472 31.2533 35.0641C30.988 35.181 30.6974 35.2288 30.4086 35.2028C30.1368 35.2266 29.8631 35.1888 29.6079 35.0924C29.3527 34.9959 29.1224 34.8432 28.9343 34.6457C28.6198 34.1602 28.4724 33.5854 28.5143 33.0085C28.4747 32.433 28.6188 31.8598 28.9257 31.3714C29.1036 31.1748 29.3248 31.0222 29.5716 30.9255C29.8185 30.8288 30.0845 30.7907 30.3486 30.8142C30.6381 30.7893 30.9293 30.8383 31.1947 30.9567C31.4601 31.0752 31.691 31.2592 31.8657 31.4914C31.9068 31.5714 31.9678 31.6395 32.0429 31.689C32.118 31.7386 32.2046 31.7679 32.2943 31.7742H33.1943C33.2062 31.5175 33.1448 31.2628 33.0173 31.0397C32.8898 30.8165 32.7015 30.6343 32.4743 30.5142C31.7682 30.1704 30.9875 30.0083 30.2029 30.0428C29.3516 29.9898 28.5119 30.2625 27.8543 30.8057C27.5776 31.0913 27.3613 31.4298 27.2185 31.8009C27.0756 32.1721 27.0091 32.5682 27.0229 32.9657ZM23.3114 35.8028C23.3084 35.8095 23.3068 35.8168 23.3068 35.8242C23.3068 35.8316 23.3084 35.8389 23.3114 35.8457H24.6572V30.3514H23.3286L23.3114 35.8028ZM23.3114 28.5857C23.3086 28.6386 23.3162 28.6916 23.3338 28.7416C23.3515 28.7916 23.3788 28.8377 23.4143 28.8771C23.4507 28.9114 23.494 28.9376 23.5413 28.9539C23.5886 28.9701 23.6388 28.9761 23.6886 28.9714H24.4086C24.4584 28.9761 24.5086 28.9701 24.5559 28.9539C24.6032 28.9376 24.6465 28.9114 24.6829 28.8771C24.7514 28.7962 24.7853 28.6914 24.7772 28.5857V28.3799C24.7853 28.2742 24.7514 28.1695 24.6829 28.0885C24.6465 28.0542 24.6032 28.028 24.5559 28.0118C24.5086 27.9955 24.4584 27.9895 24.4086 27.9942H23.6886C23.6388 27.9895 23.5886 27.9955 23.5413 28.0118C23.494 28.028 23.4507 28.0542 23.4143 28.0885C23.3788 28.1279 23.3515 28.174 23.3338 28.224C23.3162 28.274 23.3086 28.327 23.3114 28.3799V28.5857ZM16.9943 35.7942C16.9905 35.8023 16.9885 35.8111 16.9885 35.82C16.9885 35.8288 16.9905 35.8376 16.9943 35.8457H18.34V32.0571C18.34 32.0094 18.359 31.9636 18.3927 31.9298C18.4265 31.8961 18.4723 31.8771 18.52 31.8771H20.7314C20.7395 31.8809 20.7483 31.8829 20.7571 31.8829C20.766 31.8829 20.7748 31.8809 20.7829 31.8771C20.7881 31.8633 20.7881 31.848 20.7829 31.8342V31.1142C20.7867 31.1062 20.7887 31.0974 20.7887 31.0885C20.7887 31.0796 20.7867 31.0708 20.7829 31.0628H18.5714C18.5482 31.064 18.525 31.0604 18.5032 31.0523C18.4814 31.0442 18.4615 31.0318 18.4446 31.0157C18.4278 30.9997 18.4144 30.9804 18.4053 30.959C18.3961 30.9376 18.3914 30.9146 18.3914 30.8914V30.6771C18.337 30.1406 18.4973 29.6044 18.8372 29.1857C19.3548 28.883 19.9546 28.751 20.5514 28.8085C20.7097 28.8129 20.8674 28.8301 21.0229 28.86C21.1313 28.8677 21.2401 28.8677 21.3486 28.86H21.6057C21.613 28.8406 21.613 28.8193 21.6057 28.8V28.1485C21.5923 28.1424 21.5777 28.1392 21.5629 28.1392C21.5481 28.1392 21.5335 28.1424 21.52 28.1485C21.0246 28.0643 20.5224 28.027 20.02 28.0371C19.1785 27.9675 18.3376 28.1785 17.6286 28.6371C17.148 29.2194 16.917 29.9681 16.9857 30.72L16.9943 35.7942ZM10.6772 35.7942C10.6733 35.8023 10.6714 35.8111 10.6714 35.82C10.6714 35.8288 10.6733 35.8376 10.6772 35.8457H12.0229V32.0571C12.0217 32.0339 12.0253 32.0107 12.0334 31.9889C12.0415 31.9671 12.0539 31.9471 12.0699 31.9303C12.086 31.9135 12.1053 31.9001 12.1266 31.8909C12.148 31.8818 12.171 31.8771 12.1943 31.8771H14.4143C14.4143 31.8771 14.4143 31.8771 14.4143 31.8342V31.1142C14.4181 31.1062 14.4201 31.0974 14.4201 31.0885C14.4201 31.0796 14.4181 31.0708 14.4143 31.0628H12.2457C12.2232 31.0628 12.2009 31.0584 12.1801 31.0498C12.1593 31.0411 12.1404 31.0285 12.1245 31.0126C12.1086 30.9967 12.096 30.9778 12.0873 30.957C12.0787 30.9362 12.0743 30.9139 12.0743 30.8914V30.6771C12.0455 30.4113 12.07 30.1425 12.1466 29.8864C12.2231 29.6303 12.3501 29.392 12.52 29.1857C13.0372 28.8819 13.6374 28.7499 14.2343 28.8085C14.3926 28.8129 14.5502 28.8301 14.7057 28.86C14.8142 28.8677 14.923 28.8677 15.0314 28.86H15.2886C15.2958 28.8406 15.2958 28.8193 15.2886 28.8V28.1485C15.275 28.1429 15.2604 28.1399 15.2457 28.1399C15.231 28.1399 15.2164 28.1429 15.2029 28.1485C14.7104 28.064 14.211 28.0266 13.7114 28.0371C12.8698 27.9662 12.0285 28.1773 11.32 28.6371C10.8394 29.2194 10.6084 29.9681 10.6772 30.72V35.7942ZM3.82001 31.2771C3.98531 31.0768 4.19589 30.9187 4.43435 30.8159C4.67281 30.713 4.93232 30.6684 5.19144 30.6857C5.45126 30.6731 5.71053 30.7198 5.94963 30.8223C6.18872 30.9247 6.40136 31.0803 6.57144 31.2771C6.8924 31.7884 7.0397 32.3896 6.99144 32.9914C7.03606 33.5928 6.88903 34.193 6.57144 34.7057C6.39441 34.8927 6.18111 35.0416 5.94458 35.1434C5.70804 35.2452 5.45323 35.2978 5.19572 35.2978C4.93821 35.2978 4.6834 35.2452 4.44686 35.1434C4.21033 35.0416 3.99703 34.8927 3.82001 34.7057C3.50241 34.193 3.35538 33.5928 3.40001 32.9914C3.3453 32.3925 3.48345 31.7919 3.79429 31.2771H3.82001ZM2.79144 35.2199C3.49701 35.7111 4.33606 35.9743 5.19572 35.9743C6.05539 35.9743 6.89443 35.7111 7.60001 35.2199C7.89194 34.9246 8.11897 34.5715 8.26657 34.1833C8.41417 33.7951 8.47908 33.3804 8.45715 32.9657C8.48165 32.552 8.4179 32.1378 8.27012 31.7506C8.12234 31.3634 7.89392 31.0121 7.60001 30.72C6.89631 30.2241 6.05654 29.958 5.19572 29.958C4.3349 29.958 3.49513 30.2241 2.79144 30.72C2.49752 31.0121 2.2691 31.3634 2.12132 31.7506C1.97355 32.1378 1.90979 32.552 1.93429 32.9657C1.909 33.3785 1.96986 33.7921 2.11299 34.1802C2.25612 34.5683 2.47841 34.9224 2.76572 35.2199H2.79144Z" fill="#160F07"/>
</svg>
